<?xml version="1.0" encoding="utf-8"?>
<!-- Generator: Adobe Illustrator 21.1.0, SVG Export Plug-In . SVG Version: 6.00 Build 0)  -->
<svg version="1.1" id="HQFL" xmlns="http://www.w3.org/2000/svg" xmlns:xlink="http://www.w3.org/1999/xlink" x="0px" y="0px"
	 viewBox="0 0 405.1 503.9" style="enable-background:new 0 0 405.1 503.9;" xml:space="preserve">
<style type="text/css">
	.st0{fill:url(#SVGID_1_);}
	.st1{fill:url(#SVGID_2_);}
	.st2{fill:url(#SVGID_3_);}
	.st3{fill:url(#SVGID_4_);}
	.st4{fill:url(#SVGID_5_);}
	.st5{fill:url(#SVGID_6_);}
	.st6{fill:url(#SVGID_7_);}
	.st7{fill:url(#SVGID_8_);}
	.st8{fill:#A60B16;}
</style>
<g>
	<path d="M204.2,449l-27.9,53.7h10l3.9-8.3h24.4c1.8,9.3,12.9,9.3,21.7,8.8l-12.7-58.9L204.2,449z M193.8,485.1l14.1-27.2l4.8,27.2
		H193.8z"/>
	<path d="M272.9,493.8c-9.8-0.3-14.9-4.3-14.9-15c0-9.8,5.3-25.6,17.1-25.6c5.4,0,16.3,0,16.3,0l2.4-9.9c0,0-15,0-22.6,0
		c-18.9,0-33.5,16.7-33.5,35.1c0,16.7,12,25.8,27.9,25.5H288l7.1-36.1l-17.8,3.3L272.9,493.8z"/>
	<path d="M380.8,478.6c5.1,0,15.9-0.1,15.9-0.1l4.3-10.8c-3.5,0-10.8,0-14.3,0c-6.4,0-11.1-0.3-11.1-7.1c0-7.1,9.1-6.3,10.7-6.3
		c5.6,0,14,0,14,0l4.8-10c0,0-23.5-0.1-26-0.1c-8.1,0-16.6,1.9-21.1,10.4c-3,5.8-2.2,12.9,2.6,16.6c-4.1,1.8-8.6,7.1-8.6,13.9
		c0,10.4,9.9,17.6,19.3,17.6h24.3l4-11c0,0-11.5-0.1-17.2-0.1c-4.7,0-11.3,0.7-11.3-6.2C371,478.9,376,478.6,380.8,478.6z"/>
	<path d="M159.4,491.6c-4.7,0-11.3,0.7-11.3-6.2c-0.1-6.6,5-6.8,9.8-6.8c5.1,0,15.9-0.1,15.9-0.1l4.3-10.8c-3.5,0-10.8,0-14.3,0
		c-6.4,0-11.1-0.3-11.1-7.1c0-7.1,9.1-6.3,10.7-6.3c5.6,0,14,0,14,0l4.8-10c0,0-23.5-0.1-26-0.1c-8.1,0-16.7,1.9-21.1,10.4
		c-3,5.8-2.2,12.9,2.5,16.6c-4.1,1.8-8.6,7.1-8.6,13.9c0,10.4,9.9,17.6,19.3,17.6h24.3l4-11C176.6,491.7,165.1,491.6,159.4,491.6z"
		/>
	<path d="M343.6,444.9l-7.6,38c-1.6,7.9-4.5,11.1-12.8,11.1c-4.3,0-9-2-8.5-6.8c0.2-2.5,7.6-37.7,8.7-43.1l-18.6,4
		c0,0-8.1,36.4-8,40.4c0.3,12.6,10.6,15.4,21.2,15.4c10.7,0,22.2-2.5,26.8-13.1c1.9-4.3,8.7-42.9,9.4-45.9H343.6z"/>
	<path d="M114.5,444.8l-19.2,3.3c0,0-7.4,38.4-8.2,42.6c-2.2,8.8,3.9,12,12.9,12h22.3l4.8-11.9h-22.3L114.5,444.8z"/>
	<path d="M27.9,449L0,502.7h10l3.9-8.3h24.4c1.8,9.3,12.9,9.3,21.7,8.8l-12.7-58.9L27.9,449z M17.5,485.1l14.1-27.2l4.8,27.2H17.5z"
		/>
	<polygon points="60.7,480.2 83.2,480.2 85.5,467.7 58,467.7 	"/>
</g>
<g>
	<path d="M54.4,433.4c30,0,54.3-12.5,54.3-27.8c0-15.4-24.3-27.8-54.3-27.8c-30,0-54.3,12.5-54.3,27.8
		C0.1,420.9,24.4,433.4,54.4,433.4z M64.6,419.8c-0.9,2.1-2.5,6.6-6.1,8.4c-1,0.5-2.4,0.8-3.6,0.8c-0.3,0-0.4,0-0.5,0
		c-10,0-19.3-1.4-27.2-3.8c-0.1,0-0.3-0.1-0.3-0.1c-0.7-0.2-1.1-0.6-1.1-0.9c0-0.4,0.2-0.7,0.4-0.9c0.1-0.1,0.3-0.2,0.5-0.4
		c1.8-1.5,7.2-5.5,17.5-9.4c3.6-1.4,8.1-3.1,12.8-4.1C59.8,408.8,70,407.2,64.6,419.8z M92.1,391.7c0.2-0.4,0.5-0.6,0.9-0.7
		c0.3,0,0.6,0.1,1.1,0.4c6.4,3.9,10.1,8.8,10.1,14.2c0,9.6-12.3,17.8-30,21.4c-1.1,0.2-1.9,0.2-2.2-0.1c-0.1-0.2-0.2-0.5,0-0.9
		c0.1-0.2,0.2-0.4,0.5-0.6c9.6-11.3,16.9-28,19-32.8C91.8,392.2,91.9,391.9,92.1,391.7z M44.3,391.3c0.9-2.1,2.5-6.6,6.1-8.4
		c1.1-0.5,2.4-0.8,3.6-0.8c0.3,0,0.5,0,0.5,0c10,0,19.4,1.4,27.2,3.8c0.1,0,0.2,0.1,0.3,0.1c0.7,0.3,1.1,0.6,1.1,1
		c0,0.4-0.2,0.6-0.4,0.9c-0.1,0.1-0.3,0.3-0.5,0.4c-1.8,1.5-7.2,5.4-17.5,9.4c-3.6,1.4-8.1,3.1-12.8,4.1
		C49.1,402.4,38.9,403.9,44.3,391.3z M34.5,384.1c1.1-0.2,1.9-0.2,2.1,0.1c0.2,0.2,0.2,0.5,0,0.8c-0.1,0.2-0.2,0.4-0.5,0.7
		c-9.6,11.3-16.9,28-19,32.8c-0.2,0.3-0.3,0.7-0.4,0.9c-0.2,0.3-0.4,0.6-0.9,0.6c-0.3,0-0.6,0-1.1-0.4c-6.4-3.9-10.2-8.8-10.2-14.1
		C4.5,396,16.8,387.7,34.5,384.1z"/>
	<polygon points="139.8,409.5 157,409.5 157,425.4 166.5,425.4 166.5,385.7 166,385.7 157,385.7 157,400.9 139.8,400.9 139.8,385.7 
		130.4,385.7 130.4,425.4 139.8,425.4 	"/>
	<polygon points="186.5,425.4 196,425.4 196,411.7 212.3,385.7 211.4,385.7 201.2,385.7 191.2,401.4 181.4,385.7 170.2,385.7 
		186.5,411.7 	"/>
	<path d="M250,423.3c1.5-1.5,2.2-3.4,2.2-6v-31.6h-0.5h-9v29.1c0,1.1-0.8,2-2,2h-15.1v-31.1h-9.5v39.7H244
		C246.5,425.4,248.5,424.7,250,423.3z"/>
	<path d="M287.6,396.3v29.2h9.5v-31.6c0-2.5-0.7-4.5-2.2-5.9c-1.5-1.5-3.5-2.2-5.9-2.2h-28v39.7h9.4v-31.1h15.2
		C286.8,394.3,287.6,395.3,287.6,396.3z"/>
	<path d="M339.7,423.3c1.5-1.5,2.2-3.4,2.2-6v-23.5c0-2.5-0.7-4.5-2.2-5.9c-1.5-1.5-3.5-2.2-5.9-2.2h-28v39.7h28
		C336.2,425.4,338.2,424.7,339.7,423.3z M332.4,414.8c0,1.1-0.8,2.1-2,2.1h-15.2v-22.5h15.1c1.2,0,2,0.8,2,2.1L332.4,414.8
		L332.4,414.8z"/>
	<path d="M359.7,413.2h17.2v12.3h9.4v-39.7h-0.5h-27.5c-2.5,0-4.5,0.7-5.9,2.2c-1.5,1.5-2.2,3.4-2.2,5.9v31.6h9.5V413.2z
		 M359.7,396.3c0-0.9,0.7-2,2-2h15.2v10.2h-17.2V396.3z"/>
	<polygon points="404.9,385.7 404.5,385.7 395.5,385.7 395.5,425.4 404.9,425.4 	"/>
</g>
<g>
	
		<radialGradient id="SVGID_1_" cx="-3187.0557" cy="-673.291" r="207.5096" gradientTransform="matrix(0.7885 -0.5759 -0.5363 -0.7343 2341.3596 -2138.0029)" gradientUnits="userSpaceOnUse">
		<stop  offset="0" style="stop-color:#FFDD00"/>
		<stop  offset="6.970000e-02" style="stop-color:#FFD800"/>
		<stop  offset="0.1627" style="stop-color:#FACA00"/>
		<stop  offset="0.2687" style="stop-color:#EFB300"/>
		<stop  offset="0.3845" style="stop-color:#E29300"/>
		<stop  offset="0.5082" style="stop-color:#D06809"/>
		<stop  offset="0.6366" style="stop-color:#BF3316"/>
		<stop  offset="0.6966" style="stop-color:#B60718"/>
		<stop  offset="0.7821" style="stop-color:#CB5928"/>
		<stop  offset="0.8883" style="stop-color:#E7A34E"/>
		<stop  offset="0.9635" style="stop-color:#FAD16F"/>
		<stop  offset="1" style="stop-color:#FFE37D"/>
	</radialGradient>
	<path class="st0" d="M62,77.1c3.1,2.8,4.3,3.5,7.3,4.7c8.9,3.6,17.7,8,25.6,13.4c7.9,5.3,15.2,11.4,21.9,18.2
		c11,11.3,17.9,24.9,27.4,37.4c5.4,7.1,15.8,10.1,21.6,16.9c9.8,11.4,26.2,31.9,43.8,23.7c13-6.1,19.2-23.8,21.7-37.6
		c2.2-12.3-0.6-25.7,0-38.2c0.9-17.5,13.8-34.4,12.9-52c-0.5-10.7-2.1-21.2-2.1-31.9c0-7.6,3.6-15,1.4-22.6c-0.3-1-0.8-1.9-1.5-2.7
		c-2-2.4-6.8-3.1-9.6-3.7c-6.3-1.2-14.6-2-21-2.4c-6.6-0.4-13.3-0.2-20,0.1c-3.5,0.1-5.2,0.4-8.7,0.9c-6,0.7-1.6,5.6,0.5,8.2
		c3.6,4.4,4.9,8.5,7,14c5.7,14.9,3.6,26.2,2.7,41.4c-0.4,7.3-1.5,14.6-1.5,21.9c0,8.2,2.4,21.7-8.8,23.7
		c-10.2,1.8-18.2-8.9-22.6-15.9c-6.1-9.8-13.3-16.5-21.9-24.4c-7.2-6.7-14.8-13-20.8-20.8c-2.7-3.6-4.8-7.3-6.3-11.5
		c-1.2-3.4-3.7-9.5-5.6-10c-2.9-0.8-12.7,7.5-14.9,9.3c-13,10.3-7.2,3.5-28.1,28.3c-1.4,1.6-3,4-3.5,6C58.5,73.5,60.4,75.5,62,77.1z
		"/>
	
		<radialGradient id="SVGID_2_" cx="-3186.6421" cy="-673.3095" r="207.3825" gradientTransform="matrix(0.7885 -0.5759 -0.5363 -0.7343 2341.3596 -2138.0029)" gradientUnits="userSpaceOnUse">
		<stop  offset="0" style="stop-color:#FFDD00"/>
		<stop  offset="6.970000e-02" style="stop-color:#FFD800"/>
		<stop  offset="0.1627" style="stop-color:#FACA00"/>
		<stop  offset="0.2687" style="stop-color:#EFB300"/>
		<stop  offset="0.3845" style="stop-color:#E29300"/>
		<stop  offset="0.5082" style="stop-color:#D06809"/>
		<stop  offset="0.6366" style="stop-color:#BF3316"/>
		<stop  offset="0.6966" style="stop-color:#B60718"/>
		<stop  offset="0.7821" style="stop-color:#CB5928"/>
		<stop  offset="0.8883" style="stop-color:#E7A34E"/>
		<stop  offset="0.9635" style="stop-color:#FAD16F"/>
		<stop  offset="1" style="stop-color:#FFE37D"/>
	</radialGradient>
	<path class="st1" d="M155.2,275.4c8.4-6.9,16.5-11,22.3-20.7c3.4-5.6,7.7-10.4,5.8-16.5c-0.5-1.7-1.2-3.2-2.2-4.8
		c-5.1-8.1-14.2-13.4-23.2-15c-9.8-1.7-19.7-1.2-29.5-2c-7.4-0.6-15-2.1-22.1-4.3c-4.7-1.5-9.2-3.7-13.8-5.6
		c-4.7-2-9.4-4.2-14.2-5.8c-10.3-3.5-21.3-4.5-31.5-8.3c-6.3-2.3-18.2-5.1-22.1-10.9c-0.6-0.8-0.5-1-0.8-0.2c-0.1,0.2,0,0.7,0,1.1
		c-0.6,10.3,0.5,19.6,2.7,29.7c3,13.3,5.3,16.3,12.7,21.3c10.2,6.9,21.4,9.3,33.2,11.7c11.2,2.3,26.5,3.7,33.4,14.3
		c4.3,6.7-1.1,12.4-6.7,15.5c-7.3,4.1-15.6,5-23.9,6.3c-5.7,0.9-12.8,2-15.4,1.7c-2.3-0.3-3.2,0-3.2,0c-1.2,0.8,11.6,16.4,13,17.8
		c8.1,8.6,20.7,22,34.1,16.7c4.3-1.7,8.7-3.2,12.6-5.6C131.3,302.4,141.5,286.6,155.2,275.4z"/>
	
		<radialGradient id="SVGID_3_" cx="-3187.1094" cy="-673.6533" r="207.9028" gradientTransform="matrix(0.7885 -0.5759 -0.5363 -0.7343 2341.3596 -2138.0029)" gradientUnits="userSpaceOnUse">
		<stop  offset="0" style="stop-color:#FFDD00"/>
		<stop  offset="6.970000e-02" style="stop-color:#FFD800"/>
		<stop  offset="0.1627" style="stop-color:#FACA00"/>
		<stop  offset="0.2687" style="stop-color:#EFB300"/>
		<stop  offset="0.3845" style="stop-color:#E29300"/>
		<stop  offset="0.5082" style="stop-color:#D06809"/>
		<stop  offset="0.6366" style="stop-color:#BF3316"/>
		<stop  offset="0.6966" style="stop-color:#B60718"/>
		<stop  offset="0.7821" style="stop-color:#CB5928"/>
		<stop  offset="0.8883" style="stop-color:#E7A34E"/>
		<stop  offset="0.9635" style="stop-color:#FAD16F"/>
		<stop  offset="1" style="stop-color:#FFE37D"/>
	</radialGradient>
	<path class="st2" d="M283.4,127.7c13.7-13.8,21.3-25.7,27.6-41c3-7.3,5.6-14.8,8.2-22.3c1.5-4.3,5.3-8.9,4.1-13.4
		c-1.9-7.1-17.1-15.4-19.5-16.8c-2.8-1.6-3.2,5.9-3.3,8.4c0,4.7-0.3,9.4-1.3,14c-0.9,3.8-6.5,14.3-12,7.6
		c-4.5-5.5-3.6-13.4-3.1-19.9c0.3-4,0-7.9,0.5-11.9c0.4-2.8,2.4-6.5,0.8-9.1c-1.3-2.1-6.3-4-8.3-5.3c-2.4-1.6-5.5-2.1-8.1-3.3
		c-4.2-2-9.7-2.9-14.3-4.3c-3.8-1.2-0.5,6.4,1.1,10.2c6.4,15.2,5.3,30.5,4.1,46.5c-0.9,12.5-7.1,24.1-9.8,36.3
		c-2,8.8-2.3,24.7,5.1,31.5C262.8,141.6,276.5,134.6,283.4,127.7z"/>
	
		<radialGradient id="SVGID_4_" cx="-3185.6343" cy="-674.8046" r="208.9287" gradientTransform="matrix(0.7885 -0.5759 -0.5363 -0.7343 2341.3596 -2138.0029)" gradientUnits="userSpaceOnUse">
		<stop  offset="0" style="stop-color:#FFDD00"/>
		<stop  offset="6.970000e-02" style="stop-color:#FFD800"/>
		<stop  offset="0.1627" style="stop-color:#FACA00"/>
		<stop  offset="0.2687" style="stop-color:#EFB300"/>
		<stop  offset="0.3845" style="stop-color:#E29300"/>
		<stop  offset="0.5082" style="stop-color:#D06809"/>
		<stop  offset="0.6366" style="stop-color:#BF3316"/>
		<stop  offset="0.6966" style="stop-color:#B60718"/>
		<stop  offset="0.7821" style="stop-color:#CB5928"/>
		<stop  offset="0.8883" style="stop-color:#E7A34E"/>
		<stop  offset="0.9635" style="stop-color:#FAD16F"/>
		<stop  offset="1" style="stop-color:#FFE37D"/>
	</radialGradient>
	<path class="st3" d="M34.1,171.7c18,4.5,34.4,13.5,56.1,16c11.6,1.3,22.8,4.7,34.5,1.8c8.9-2.3,14.7-10.6,12.9-19.5
		c-0.5-2.5-1.4-4.9-2.4-7.2c-3.6-7.9-11.2-13.2-15-21.3c-6.5-14-20.1-24.7-34.5-30.5c-11.7-4.8-20.7-13.1-29.4-21.2
		c-0.9-0.8-3.9-5.1-4.7-5.1c-2.3,0-10.3,18.4-11.4,20.4c-3.2,6.2-3.6,12.4,2.6,16.8c8.7,6.2,19,10.4,27.8,16.8
		c4.2,3.1,14.6,8.7,8.4,13.9c-6,5.1-20.7,1.6-25.9-1.4c-5.6-3.4-9.5-7.3-14.5-11.4c-2.2-1.8-6.1-4.4-8.5-5.7
		c-0.9-0.4-3.4,12.2-3.6,13.5c-1,5.2-2,10.4-1.2,15.7C26.1,169,29,170.4,34.1,171.7z"/>
	
		<radialGradient id="SVGID_5_" cx="-3186.7915" cy="-673.3085" r="207.1596" gradientTransform="matrix(0.7885 -0.5759 -0.5363 -0.7343 2341.3596 -2138.0029)" gradientUnits="userSpaceOnUse">
		<stop  offset="0" style="stop-color:#FFDD00"/>
		<stop  offset="6.970000e-02" style="stop-color:#FFD800"/>
		<stop  offset="0.1627" style="stop-color:#FACA00"/>
		<stop  offset="0.2687" style="stop-color:#EFB300"/>
		<stop  offset="0.3845" style="stop-color:#E29300"/>
		<stop  offset="0.5082" style="stop-color:#D06809"/>
		<stop  offset="0.6366" style="stop-color:#BF3316"/>
		<stop  offset="0.6966" style="stop-color:#B60718"/>
		<stop  offset="0.7821" style="stop-color:#CB5928"/>
		<stop  offset="0.8883" style="stop-color:#E7A34E"/>
		<stop  offset="0.9635" style="stop-color:#FAD16F"/>
		<stop  offset="1" style="stop-color:#FFE37D"/>
	</radialGradient>
	<path class="st4" d="M377.2,176.9c-6.6,3.7-13.4,10.6-19.9,14.8c-6.3,4.1-13.5,6.7-21.1,6.4c-6.6-0.2-13.7-3.2-15.8-9.9
		c-3.3-10.3,4.2-20.7,10.5-28c1.9-2.2,3.8-4.3,5.8-6.4c7-7.7,12.4-16.5,16.4-26.1c1.1-2.7,2.2-5.5,3.1-8.4c1-3.1,0.5-2,1.6-5.1
		c3.2-9.2-0.1-18.2-4.6-25.9c-3-5.2-7.7-12.1-10.7-17.3c-1.8-3-5.8-8.1-10-7.9c-1.4,0.1-1.7,1.8-2.8,4.2c-1.9,4-2.5,10.6-3.8,14.8
		c-4.4,14.1-8.7,23.5-16,36.4c-6.4,11.4-13.8,22.1-22.7,31.7c-14.3,15.4-35.3,29.6-40.2,51.3c-1.2,5.3-0.9,10.9,1.6,15.8
		c6,11.7,21.4,13,33.7,14.4c14.7,1.7,26.3,7.7,41,5.9c11.6-1.4,20.7-5.5,32.2-7.3c2.8-0.4,9.5-2.1,11.5-4.1c5.1-5.1,7-11.3,8-18.1
		C376.7,198.9,379.2,185.9,377.2,176.9z"/>
	
		<radialGradient id="SVGID_6_" cx="-3186.7915" cy="-671.2197" r="209.9089" gradientTransform="matrix(0.7885 -0.5759 -0.5363 -0.7343 2341.3596 -2138.0029)" gradientUnits="userSpaceOnUse">
		<stop  offset="0" style="stop-color:#FFDD00"/>
		<stop  offset="6.970000e-02" style="stop-color:#FFD800"/>
		<stop  offset="0.1627" style="stop-color:#FACA00"/>
		<stop  offset="0.2687" style="stop-color:#EFB300"/>
		<stop  offset="0.3845" style="stop-color:#E29300"/>
		<stop  offset="0.5082" style="stop-color:#D06809"/>
		<stop  offset="0.6366" style="stop-color:#BF3316"/>
		<stop  offset="0.6966" style="stop-color:#B60718"/>
		<stop  offset="0.7821" style="stop-color:#CB5928"/>
		<stop  offset="0.8883" style="stop-color:#E7A34E"/>
		<stop  offset="0.9635" style="stop-color:#FAD16F"/>
		<stop  offset="1" style="stop-color:#FFE37D"/>
	</radialGradient>
	<path class="st5" d="M199.8,291.6c-0.9-3.1-2.3-6.5-4.4-9.2c-1.8-2.4-5.6-4.3-8.6-5.1c-6.9-1.8-15.7,5.5-20.7,9.2
		c-9.7,7.2-17.4,16.8-27.7,23.1c-9.7,5.9-18.2,10.7-29,14.3c-1.7,0.6-6.5,1.9-4.9,3.5c1.3,1.5,2.8,2.1,4.5,3.2
		c1.7,1.1,3.3,2.3,5,3.3c2.3,1.4,4.1,2.6,6.5,4c3.6,2,7.7,4.1,12,3.8c5.6-0.4,10.6-5.4,15.3-8.1c6.5-3.7,9.2-6.1,14.8-10.8
		c3.4-3,8.8-6.2,8.8,0.9c0,6.5-1.7,10.8-6.4,15c-2.2,2-4.7,3.5-7.3,5c-2.3,1.3-7.1,3-9,4.9c2.1,2.1,7.1,2.8,9.8,3.6
		c2.8,0.8,5.4,1.2,8.3,1.7c4,0.8,7.2,0.7,11.3,1.2c6.1,0.8,6.7-3,9.1-7.5c3.5-6.4,7.9-12.4,10.1-19.4
		C200.7,317.1,203.1,303,199.8,291.6z"/>
	
		<radialGradient id="SVGID_7_" cx="-3186.7932" cy="-673.3134" r="207.157" gradientTransform="matrix(0.7885 -0.5759 -0.5363 -0.7343 2341.3596 -2138.0029)" gradientUnits="userSpaceOnUse">
		<stop  offset="0" style="stop-color:#FFDD00"/>
		<stop  offset="6.970000e-02" style="stop-color:#FFD800"/>
		<stop  offset="0.1627" style="stop-color:#FACA00"/>
		<stop  offset="0.2687" style="stop-color:#EFB300"/>
		<stop  offset="0.3845" style="stop-color:#E29300"/>
		<stop  offset="0.5082" style="stop-color:#D06809"/>
		<stop  offset="0.6366" style="stop-color:#BF3316"/>
		<stop  offset="0.6966" style="stop-color:#B60718"/>
		<stop  offset="0.7821" style="stop-color:#CB5928"/>
		<stop  offset="0.8883" style="stop-color:#E7A34E"/>
		<stop  offset="0.9635" style="stop-color:#FAD16F"/>
		<stop  offset="1" style="stop-color:#FFE37D"/>
	</radialGradient>
	<path class="st6" d="M366.5,239.3c-0.7-0.8-2.5-0.2-3.3,0c-4.6,0.8-9,4.2-13.6,5.6c-5.5,1.7-11.3,2-17,2.6
		c-10.9,1.1-22.1,3.5-33.1,2.3c-4.4-0.5-8.9-2.1-13.4-1.8c-11.5,0.6-12.1,14.4-6,21.2c6.5,7.2,17.2,11.5,25.9,15.1
		c6,2.5,15.6,8.7,21.8,10.7c2.8,0.9,3.8,1.2,6.5-0.4c5.1-3.2,8.3-8.5,11.4-13.5c0.6-0.9,3.7-4.1,1.8-4.6c-2.5-0.7-5.6,0-8.2-0.1
		c-2.1-0.1-4.2,0-6.2-0.3c-1.9-0.3-4.6-0.6-5.8-2.3c-1.1-1.5,0-3.8,1.2-4.9c2-1.7,4.8-1.9,7.3-2.3c5.2-0.7,18.4-3.5,21.8-7.6
		c2.2-2.6,4-5.4,5.3-8.6c0.6-1.6,1.6-3.4,2.2-5C365.5,244.3,367.4,240.6,366.5,239.3C366.6,239.4,366.6,239.3,366.5,239.3z"/>
	
		<radialGradient id="SVGID_8_" cx="-3186.7905" cy="-673.3115" r="207.1579" gradientTransform="matrix(0.7885 -0.5759 -0.5363 -0.7343 2341.3596 -2138.0029)" gradientUnits="userSpaceOnUse">
		<stop  offset="0" style="stop-color:#FFDD00"/>
		<stop  offset="6.970000e-02" style="stop-color:#FFD800"/>
		<stop  offset="0.1627" style="stop-color:#FACA00"/>
		<stop  offset="0.2687" style="stop-color:#EFB300"/>
		<stop  offset="0.3845" style="stop-color:#E29300"/>
		<stop  offset="0.5082" style="stop-color:#D06809"/>
		<stop  offset="0.6366" style="stop-color:#BF3316"/>
		<stop  offset="0.6966" style="stop-color:#B60718"/>
		<stop  offset="0.7821" style="stop-color:#CB5928"/>
		<stop  offset="0.8883" style="stop-color:#E7A34E"/>
		<stop  offset="0.9635" style="stop-color:#FAD16F"/>
		<stop  offset="1" style="stop-color:#FFE37D"/>
	</radialGradient>
	<path class="st7" d="M315,299.8c-13.9-2.9-27.1-9.1-39.1-16.5c-10.8-6.6-21.6-22.2-34.9-23c-24.4-1.3-22.1,38.2-25.6,53.9
		c-1.3,5.9-3.6,11.5-6.8,16.8c-4.3,7.2-9.9,14-14.7,20.8c-0.7,0.9-2.1,3.1-1.8,3.4c1,1.3,3.8,1.1,5.2,1.1
		c11.4-0.5,21.5,1.3,34.4-3.3c2.3-0.8,4.9-1.3,6.6-3.1c3.1-3.4,3.2-11.5,4.7-15.7c1.8-4.9,3.8-9.8,7.6-13.6
		c4.5-4.5,10.4-5.7,16.3-3.7c5.3,1.8,12.8,9.6,18.2,11.5c1.8,0.6,3.8,1.3,5.7,1.2c3.3-0.2,6.3-2.5,8.9-4.3c3.2-2.1,6-3.7,9.1-5.9
		c3.1-2.2,7.1-5.8,10-8.3c2.8-2.4,6.8-6.9,9-9.8C328.7,300.2,315.7,300,315,299.8z"/>
	<path class="st8" d="M59.9,84.1c3.1,2.6,4.4,3.3,7.4,4.4c8.9,3.2,17.7,7.2,25.7,12.2c8,4.9,15.4,10.6,22.2,17.1
		c11.3,10.7,18.6,23.8,28.5,35.8c5.6,6.8,16,9.3,22,15.8c8.3,9,21.3,23.9,35.2,23.9c-14.1-0.4-26.8-16.1-35-25.6
		c-5.8-6.8-16.2-9.8-21.6-16.9c-9.5-12.5-16.4-26.1-27.4-37.4c-6.6-6.8-14-12.9-21.9-18.2c-7.9-5.3-16.7-9.7-25.6-13.4
		c-3-1.2-4.3-1.9-7.3-4.7c-1.1-1-2.3-2.3-2.8-3.7c-1.1,1.5-2.1,3.4-2.5,5C56.3,80.7,58.2,82.6,59.9,84.1z"/>
	<path class="st8" d="M92.5,206.5c4.5,1.9,9.1,4.1,13.8,5.6c7.1,2.3,14.7,3.7,22.1,4.3c9.9,0.8,19.7,0.3,29.5,2
		c9,1.6,18.2,6.9,23.2,15c0.9,1.5,1.6,3.1,2.1,4.7c-0.1-0.4-0.2-0.8-0.3-1.2c-0.5-1.6-1.3-3.1-2.2-4.6c-10-14.9-21.5-15.9-38.2-17.2
		c-17.8-1.3-26.3-4.5-34.5-7.1c-16.1-4.9-24.4-12.1-40.9-15.2c-12-2.3-16.6-4.1-24.3-6.1c-10.3-2.7-13.3-8.3-17.5-8
		c-0.6,0-1,1-1.2,2c0.1,0,0.2,0.3,0.5,0.7c4,5.8,15.9,8.6,22.1,10.9c10.2,3.7,21.2,4.7,31.5,8.3C83.1,202.3,87.8,204.5,92.5,206.5z"
		/>
	<path class="st8" d="M183.3,238.2C183.3,238.1,183.3,238.1,183.3,238.2c0,0.1,0.1,0.2,0.1,0.3C183.3,238.4,183.3,238.3,183.3,238.2
		z"/>
	<path class="st8" d="M29.7,174.3c16.6,6.6,38.8,13,60.1,16.2c11.1,1.7,22.5,2.6,33.7-0.6c0.6-0.2,1.1-0.3,1.6-0.5
		c-0.2,0-0.3,0.1-0.4,0.1c-11.7,2.9-22.9-0.4-34.5-1.8c-21.7-2.5-38-11.5-56.1-16c-3.8-1-6.4-2-7.9-4.8
		C26.5,170.3,27.2,173.3,29.7,174.3z"/>
	<path class="st8" d="M184.1,26.2c6.2,14.5,4.6,25.7,4.3,40.6c-0.1,7.2-0.9,14.5-0.6,21.6c0.3,6.4,2.1,16.2-2.7,21.1
		c8.6-3.4,6.6-15.5,6.5-23.1c0-7.3,1-14.6,1.5-21.9c0.9-15.1,3-26.5-2.7-41.4c-2.1-5.4-3.4-9.5-7-14c-1.1-1.4-3-3.5-3.4-5.2
		c-1.2,0.2-2.4,0.4-4.1,0.7c-5.9,1-1.3,5.6,0.8,8C180.3,17,181.8,21,184.1,26.2z"/>
	<path class="st8" d="M299.2,56.6c1.1-4.6,1.3-9.3,1.3-14c0-2.2,0.4-8.6,2.5-8.6c-2.5-1.5-4.7-2.5-5.6-3c-2.8-1.4-2.7,5.9-2.6,8.3
		c0.3,4.5,0.4,9.1-0.3,13.6c-0.2,1.5-2,7.4-4.4,13.3C294.5,67.2,298.4,59.7,299.2,56.6z"/>
	<path class="st8" d="M336.3,198.1c7.6,0.2,14.8-2.4,21.1-6.4c6.2-4,12.8-10.6,19.2-14.3c-0.6-2.1-1.9-3-4.4-4.4
		c-6.2,3.6-9.9,8.8-15.7,13.3c-7,5.5-18.5,9.2-26.8,10.7C331.8,197.6,334.1,198,336.3,198.1z"/>
	<path class="st8" d="M247.5,99.6c-2.6,18.4,0.1,28.9,7.7,35c-7.4-6.8-7.1-22.6-5.1-31.5c2.7-12.1,8.9-23.8,9.8-36.3
		c1.2-16,2.3-31.3-4.1-46.5c-1.3-3.1-3.7-8.6-2.5-10c-1.3-0.4-2.8-0.8-4.6-1.2c-3.7-0.9-0.1,6.2,1.8,9.8c7.2,14.4,5.3,29.3,5.3,44.9
		C255.7,76.1,249.2,87.7,247.5,99.6z"/>
	<path class="st8" d="M287.4,150.2c8.9-9.6,16.3-20.3,22.7-31.7c7.2-12.9,11.6-22.3,16-36.4c1.3-4.2,1.9-10.8,3.8-14.8
		c1.1-2.2,1.4-3.8,2.5-4.1c-1.7-1.6-3.8-2.7-5.8-2.6c-1.3,0-1.5,1.7-2.5,4.1c-1.7,4-1.9,10.4-3,14.6c-3.6,13.9-7.4,23.2-13.8,35.9
		c-5.7,11.2-12.4,21.8-20.6,31.3c-13.1,15.2-35.6,33.6-39.3,55C252.1,179.8,273.1,165.6,287.4,150.2z"/>
	<path class="st8" d="M43.9,128.3c8.6,5.8,18.6,9.1,27.2,15.1c2.8,1.9,7.5,5.1,8.5,8.5c4.5-5-5.1-10.2-9.1-13.2
		c-8.8-6.4-19.1-10.6-27.8-16.8c-3.1-2.2-4.5-4.9-4.8-7.8C37.8,119,38.7,124.7,43.9,128.3z"/>
	<path class="st8" d="M346,274.7c-2.5-0.5-4.1-0.5-6.7-0.8c-2.8-0.3-4.5-0.9-6.2-1.1c-0.8-0.1-3.5-0.6-6.2-1.3
		c-0.2,0.8-0.1,1.5,0.3,2.2c1.2,1.7,3.9,2,5.8,2.3c2,0.3,4.2,0.2,6.2,0.3c2.6,0.1,5.7-0.5,8.2,0.1c0.2,0.1,0.3,0.1,0.4,0.2
		C347.9,275.8,347.3,274.9,346,274.7z"/>
	<path class="st8" d="M116.8,311.4c2.6-1.1,5.2-2.4,7.7-4.2c14.2-10.1,17.2-21.3,34.4-34.7c1.9-1.5,3.7-2.8,5.3-4.1
		c-2.9,2.2-6,4.4-9.1,7C141.7,286.5,131.5,302,116.8,311.4z"/>
	<path class="st8" d="M239,254.6c-8.9-0.6-15.2,5.2-18.1,12.9c-3.5,9-4.1,18.7-5.2,28.2c-0.9,7.7-1.7,15.7-3.6,23.2
		c-1,4.2-3,7.7-5.1,11.5c-2.1,3.8-3.9,7.7-6.1,11.4c-0.4,0.8-0.9,1.5-1.4,2.3c3.2-4.3,6.4-8.7,9.1-13.2c3.1-5.2,5.4-10.8,6.8-16.8
		c3.5-15.6,1.2-55.2,25.6-53.9c13.3,0.7,24.2,16.4,34.9,23c4.2,2.6,8.6,5,13.1,7.2c-5.5-3.3-10.5-7.1-15.3-10.9
		C263.6,271.4,252.4,255.5,239,254.6z"/>
	<path class="st8" d="M364.4,234.7c-0.7-0.7-2.5,0-3.3,0.2c-4.6,1-8.7,4.7-13.2,6.3c-5.4,2-11.2,2.6-16.8,3.5
		c-10.8,1.7-22,2.5-33.1,1.9c-4.4-0.3-9.4-0.1-13.9,0.3c-11.5,1.2-11.4,15-4.9,21.5c0.5,0.4,1,0.9,1.5,1.3c-0.2-0.2-0.4-0.4-0.6-0.6
		c-6.1-6.8-5.5-20.6,6-21.2c4.5-0.2,9,1.3,13.4,1.8c11,1.2,22.2-1.3,33.1-2.3c5.7-0.6,11.5-0.9,17-2.6c4.5-1.4,8.9-4.8,13.6-5.6
		c0.8-0.1,2.6-0.7,3.3,0c0.3-1.1-1.2-3.4-2-4.5C364.5,234.7,364.5,234.7,364.4,234.7z"/>
	<path class="st8" d="M289.7,276.7c5.1,3.3,10.7,6.1,15.8,7.9c2,0.7,4.7,1.9,7.8,3.3c-2.7-1.4-5.2-2.8-7.3-3.6
		C300.8,282.1,295,279.7,289.7,276.7z"/>
	<path class="st8" d="M101.8,254.9c-7.8-6.6-20-7.9-29.3-9.8c-6.8-1.4-13.4-2.8-19.7-5c6.8,2.7,13.9,4.3,22.2,6.4
		C83.2,248.6,94,249.9,101.8,254.9z"/>
	<path class="st8" d="M201.3,306c0.4-2.8,0.6-5.5,0.6-8.1c0-7.1-3.2-14.2-8.1-19.2c-2.1-2.1-5.9-3.6-9.3-4.1
		c-6.7-1.1-17.4,6.6-22.1,10.6c-9,7.6-15.6,15.5-25.2,22.3c-7.9,5.6-12.7,9.8-20.6,13.7c7.7-3.2,14.4-7.1,21.9-11.6
		c10.3-6.3,18.1-16,27.7-23.1c5-3.7,13.8-11,20.7-9.2c3,0.8,6.7,2.7,8.6,5.1c2.1,2.7,3.5,6.1,4.4,9.2
		C201.1,296.1,201.5,301,201.3,306z"/>
	<path class="st8" d="M98.5,268.4c-8,3.6-16.4,4.2-24.4,5.7c-5.5,1.1-13.4,2.4-15.9,2.2c-2.2-0.1-1.5,6.6-1.6,6.6c0,0,1-0.3,3.2,0
		c2.6,0.3,9.7-0.9,15.4-1.7c8.3-1.2,16.7-2.2,23.9-6.3c4.9-2.7,9.7-7.5,7.9-13.1C105.5,263.5,102.4,266.6,98.5,268.4z"/>
	<path class="st8" d="M164.3,335.4c-2,2.2-11.4,9.4-13.6,11.5c-0.1,0.1-0.1,0.2-0.2,0.2c2.2-1.4,5.3-2.5,7.1-3.5
		c2.6-1.5,5.1-3,7.3-5c4.7-4.2,6.4-8.5,6.4-15c0-0.6-0.1-1.1-0.1-1.6C169.8,327,167.3,332,164.3,335.4z"/>
</g>
</svg>
