<?xml version="1.0" encoding="UTF-8" standalone="no"?>
<!-- Created with Inkscape (http://www.inkscape.org/) -->

<svg
   xmlns:dc="http://purl.org/dc/elements/1.1/"
   xmlns:cc="http://creativecommons.org/ns#"
   xmlns:rdf="http://www.w3.org/1999/02/22-rdf-syntax-ns#"
   xmlns:svg="http://www.w3.org/2000/svg"
   xmlns="http://www.w3.org/2000/svg"
   xmlns:xlink="http://www.w3.org/1999/xlink"
   xmlns:sodipodi="http://sodipodi.sourceforge.net/DTD/sodipodi-0.dtd"
   xmlns:inkscape="http://www.inkscape.org/namespaces/inkscape"
   width="455.97861"
   height="711.79022"
   id="svg7536"
   version="1.1"
   inkscape:version="0.48.2 r9819"
   sodipodi:docname="Logo Ligue 2.svg">
  <defs
     id="defs7538">
    <radialGradient
       inkscape:collect="always"
       xlink:href="#SVGID_1_"
       id="radialGradient7489"
       gradientUnits="userSpaceOnUse"
       cx="470.8696"
       cy="331.93549"
       r="273.414" />
    <radialGradient
       gradientUnits="userSpaceOnUse"
       r="273.414"
       cy="331.93549"
       cx="470.8696"
       id="SVGID_1_">
      <stop
         id="stop7174"
         style="stop-color:#E0ECB5"
         offset="0" />
      <stop
         id="stop7176"
         style="stop-color:#A1B68C"
         offset="0.416" />
      <stop
         id="stop7178"
         style="stop-color:#97AA85"
         offset="0.5475" />
      <stop
         id="stop7180"
         style="stop-color:#819078"
         offset="0.7656" />
      <stop
         id="stop7182"
         style="stop-color:#677268"
         offset="1" />
    </radialGradient>
  </defs>
  <sodipodi:namedview
     id="base"
     pagecolor="#ffffff"
     bordercolor="#666666"
     borderopacity="1.0"
     inkscape:pageopacity="0.0"
     inkscape:pageshadow="2"
     inkscape:zoom="0.35"
     inkscape:cx="152.0898"
     inkscape:cy="385.13026"
     inkscape:document-units="px"
     inkscape:current-layer="layer1"
     showgrid="false"
     inkscape:window-width="511"
     inkscape:window-height="403"
     inkscape:window-x="75"
     inkscape:window-y="75"
     inkscape:window-maximized="0"
     fit-margin-bottom="5"
     fit-margin-top="5"
     fit-margin-left="5"
     fit-margin-right="5" />
  <metadata
     id="metadata7541">
    <rdf:RDF>
      <cc:Work
         rdf:about="">
        <dc:format>image/svg+xml</dc:format>
        <dc:type
           rdf:resource="http://purl.org/dc/dcmitype/StillImage" />
        <dc:title></dc:title>
      </cc:Work>
    </rdf:RDF>
  </metadata>
  <g
     inkscape:label="Calque 1"
     inkscape:groupmode="layer"
     id="layer1"
     transform="translate(-172.9102,-380.75287)">
    <g
       id="g7460"
       transform="matrix(10.025058,0,0,-10.025058,-3031.3731,8804.0121)">
      <g
         transform="translate(-0.39785115,59.091944)"
         id="g6995">
        <g
           id="g6979"
           style="fill:#000000">
          <g
             transform="translate(44.957179,-0.79570229)"
             id="g7443">
            <g
               style="fill:#a1b68c;fill-opacity:1"
               transform="translate(299.5449,714.0933)"
               id="g4870">
              <path
                 id="path4872"
                 style="fill:#a1b68c;fill-opacity:1;fill-rule:evenodd;stroke:none"
                 d="M 0,0 C 0,0.394 0.322,0.719 0.721,0.719 1.116,0.719 1.438,0.394 1.438,0 1.438,-0.397 1.116,-0.72 0.721,-0.72 0.322,-0.72 0,-0.397 0,0"
                 inkscape:connector-curvature="0" />
            </g>
            <g
               style="fill:#a1b68c;fill-opacity:1"
               transform="translate(299.1826,714.7646)"
               id="g4874">
              <path
                 id="path4876"
                 style="fill:#a1b68c;fill-opacity:1;fill-rule:evenodd;stroke:none"
                 d="m 0,0 c -0.21,1.185 -1.017,2.234 -1.017,2.234 0,0 0.323,0.529 0.569,1.135 0.222,0.545 0.381,1.152 0.265,1.517 -0.018,0.047 -0.075,0.067 -0.11,0.073 -0.201,0.047 -0.186,-0.492 -0.849,-1.204 0.062,0.098 0.096,0.217 0.096,0.343 0,0.363 -0.297,0.66 -0.664,0.66 -0.363,0 -0.662,-0.297 -0.662,-0.66 0,-0.371 0.299,-0.67 0.662,-0.67 0.129,0 0.25,0.041 0.351,0.105 C -1.691,3.209 -1.903,3.083 -1.912,3.09 -3.11,4.208 -4.302,4.991 -4.462,4.868 -4.599,4.758 -4.414,4.654 -4.213,4.414 -3.792,3.896 -3,2.873 -3.001,2.025 -3.006,0.712 -3.83,-0.343 -3.84,-0.42 c -0.012,-0.058 0.026,-0.118 0.076,-0.13 0.139,-0.041 0.287,0.077 0.469,0.239 0.138,0.118 0.296,0.253 0.459,0.424 0.491,0.516 0.975,1.137 0.975,1.137 0,0 -0.004,0.055 0.535,-0.621 0.242,-0.307 0.389,-0.586 0.524,-0.835 0.486,-0.894 0.396,-1.344 0.547,-1.344 0.032,0 0.081,0.024 0.116,0.085 C -0.007,-1.243 0.112,-0.647 0,0"
                 inkscape:connector-curvature="0" />
            </g>
            <g
               style="fill:#a1b68c;fill-opacity:1"
               id="g4866"
               transform="translate(297.8291,711.8999)">
              <path
                 inkscape:connector-curvature="0"
                 d="m 0,0 c -2.622,0 -4.745,2.123 -4.745,4.745 0,2.62 2.123,4.741 4.745,4.741 2.619,0 4.742,-2.121 4.742,-4.741 C 4.742,2.123 2.619,0 0,0 m 12.791,4.936 c 0,0 -1.193,0.026 -2.187,0.176 -0.993,0.157 -3.159,0.558 -4.997,1.684 0,0 -1.001,0.61 -1.704,1.418 l -10e-4,0 C 2.945,9.288 1.551,9.969 0,9.969 -1.558,9.969 -2.953,9.288 -3.908,8.21 l -0.003,0 C -4.062,8.036 -4.6,7.417 -5.572,6.801 -6.73,6.067 -8.337,5.355 -10.637,5.047 c 0,0 -1.095,-0.161 -2.146,-0.155 -1.05,0.011 -9.303,0.003 -9.303,0.003 l 0,-0.341 9.289,0 c 0,0 1.193,-0.023 2.187,-0.18 0.992,-0.156 3.158,-0.56 4.995,-1.678 0,0 1.002,-0.615 1.707,-1.424 0.959,-1.074 2.353,-1.75 3.908,-1.75 1.551,0 2.946,0.676 3.903,1.75 l 0,0.007 c 0.154,0.172 0.692,0.788 1.664,1.407 1.159,0.734 2.761,1.444 5.066,1.757 0,0 1.094,0.158 2.142,0.152 1.052,-0.008 9.307,0 9.307,0 l 0,0.341 -9.291,0 z"
                 style="fill:#a1b68c;fill-opacity:1;fill-rule:nonzero;stroke:none"
                 id="path4868" />
            </g>
          </g>
        </g>
      </g>
      <g
         id="g7242"
         transform="matrix(0.09761545,0,0,-0.09761545,300.87971,858.96966)">
        <g
           id="g7217">
          <g
             id="TEXTE_OK">
            <g
               id="g7158">
              <path
                 d="m 197.166,732.752 v -65.938 h 17.217 v 50.952 h 20.833 v 14.985 h -38.05 z"
                 id="path7160"
                 inkscape:connector-curvature="0" />
              <path
                 d="m 263.019,732.752 v -65.938 h 17.216 v 65.938 h -17.216 z"
                 id="path7162"
                 inkscape:connector-curvature="0" />
              <path
                 d="m 342.91,664.407 c 13.255,0 22.981,5.158 29.786,16.518 l -13.78,7.576 c 0,0 -4.476,-9.125 -16.183,-9.125 -11.276,0 -16.354,9.213 -16.354,21.176 0,11.197 5.162,20.146 17.902,20.146 7.318,0 14.036,-5.602 14.635,-11.71 h -15.148 v -13.77 h 33.05 c 0,0 0,2.23 0,3.614 0,19.539 -9.031,36.33 -33.741,36.33 -21.004,0 -34.429,-16.104 -34.429,-35.303 0,-20.222 15.062,-35.452 34.262,-35.452 z"
                 id="path7164"
                 inkscape:connector-curvature="0" />
              <path
                 d="m 421.842,666.814 c 0,0 0,27.107 0,40.449 0,8.787 5.341,11.884 11.882,11.884 6.284,0 11.71,-3.354 11.71,-11.027 0,-13.336 0,-27.889 0,-41.306 h 17.39 c 0,0 0,27.368 0,42.174 0,15.074 -10.248,25.655 -29.441,25.655 -14.55,0 -28.75,-7.572 -28.75,-23.762 0,-15.231 0,-44.067 0,-44.067 h 17.209 z"
                 id="path7166"
                 inkscape:connector-curvature="0" />
              <path
                 d="m 494.76,666.814 h 38.222 v 14.973 h -21.004 v 10.667 h 19.802 v 14.639 h -19.802 v 11.021 h 21.346 v 14.639 H 494.76 v -65.939 z"
                 id="path7168"
                 inkscape:connector-curvature="0" />
              <path
                 d="m 600.734,689.879 c 0.166,-14.895 8.947,-25.472 25.822,-25.472 13.601,0 24.617,9.723 24.617,22.542 0,13.175 -10.154,22.553 -20.312,31.854 h 22.036 v 13.949 h -53.545 l 28.583,-32.979 c 2.669,-3.008 6.021,-8.086 6.021,-12.824 0,-4.551 -3.095,-7.914 -8.089,-7.914 -6.111,0 -8.093,4.381 -8.093,10.844 10e-4,0 -14.199,0 -17.04,0 z"
                 id="path7170"
                 inkscape:connector-curvature="0" />
            </g>
          </g>
          <g
             id="FORME_GROUPE">
            <radialGradient
               id="radialGradient7298"
               cx="470.8696"
               cy="331.93549"
               r="273.414"
               gradientUnits="userSpaceOnUse">
              <stop
                 offset="0"
                 style="stop-color:#E0ECB5"
                 id="stop7300" />
              <stop
                 offset="0.416"
                 style="stop-color:#A1B68C"
                 id="stop7302" />
              <stop
                 offset="0.5475"
                 style="stop-color:#97AA85"
                 id="stop7304" />
              <stop
                 offset="0.7656"
                 style="stop-color:#819078"
                 id="stop7306" />
              <stop
                 offset="1"
                 style="stop-color:#677268"
                 id="stop7308" />
            </radialGradient>
            <path
               d="m 264.009,486.038 c -5.518,4.065 -1.494,18.896 8.987,33.125 10.482,14.229 23.453,22.468 28.971,18.404 5.518,-4.065 1.495,-18.895 -8.988,-33.125 -10.481,-14.23 -23.453,-22.469 -28.97,-18.404 z m 2.94,-43.12 c 6.211,26.546 29.737,43.62 49.167,39.194 19.874,-4.526 33.696,-30.07 26.675,-56.938 -6.479,-24.797 -28.146,-43.755 -49.166,-39.194 -22.28,4.835 -32.886,30.392 -26.676,56.938 z M 604,311.06 c -1.38,9.06 -2.666,20.585 -3.017,33.504 -0.544,20.06 1.233,39.309 5.281,57.212 2.783,12.308 6.656,23.997 11.57,34.978 2.994,-13.659 4.586,-27.843 4.586,-42.401 0.001,-29.769 -6.608,-57.989 -18.42,-83.293 z M 266.766,470.141 c -3.844,-6.016 -9.057,-16.226 -11.36,-23.47 -5.406,-17 -3.861,-35.091 1.83,-49.102 -10.014,2.742 -19.224,0.5 -25.994,-4.99 -1.128,-0.915 -2.156,-1.935 -3.102,-3.036 -0.039,1.599 -0.061,3.202 -0.061,4.81 0,33.839 8.529,65.684 23.548,93.51 -0.535,-7.387 1.275,-13.495 6.411,-16.715 2.385,-1.496 6.22,-1.477 8.728,-1.007 z m -26.767,-90.342 c 16.666,10.302 50.753,-13.491 75.113,-53.61 24.36,-40.119 29.259,-80.414 13.195,-90.586 -7.956,-5.038 -22.383,0.975 -37.979,14.987 -6.705,6.295 -12.967,13.054 -18.74,20.226 -4.661,5.904 -9.242,12.396 -13.6,19.421 -4.304,6.94 -8.107,13.863 -11.395,20.624 -5.569,11.897 -9.986,24.439 -13.105,37.487 -2.811,15.256 -0.933,26.851 6.511,31.451 z m 297.889,52.836 c -24.383,-1.767 -46.02,10.792 -56.034,39.024 -6.739,23.05 2.72,51.053 27.102,52.818 25.438,2.11 45.467,-15.968 54.781,-39.034 10.748,-28.069 -1.466,-51.043 -25.849,-52.808 z m 47.616,-88.637 c 0.554,-19.112 3.024,-35.365 4.999,-45.634 0.639,-3.32 1.266,-6.233 1.836,-8.714 -34.876,-55.541 -96.665,-92.469 -167.088,-92.469 -34.964,0 -67.795,9.113 -96.269,25.075 3.343,0.107 6.358,0.909 8.937,2.508 22.634,14.028 19.138,65.539 -11.456,112.225 -7.212,11.007 -14.458,21.165 -22.648,29.804 25.504,1.446 51.687,24.509 57.471,53.294 8.192,40.769 -7.118,70.943 -36.549,78.375 -5.759,1.455 -13.057,0.976 -19.621,-0.743 17.881,25.637 19.432,44.233 8.429,51.44 -2.146,1.406 -4.778,2.073 -7.731,2.071 33.147,25.274 74.534,40.294 119.435,40.294 86.129,0 159.347,-55.23 186.202,-132.203 -9.164,-16.332 -15.993,-34.318 -20.337,-53.662 -4.347,-19.361 -6.234,-40.106 -5.61,-61.661 z M 576.6,486.996 c -11.754,31.271 -39.921,54.56 -74.52,51.676 -4.384,-0.32 -9.951,-1.849 -13.625,-3.345 -1.564,7.536 -5.466,15.574 -13.691,24.413 -13.308,13.307 -38.51,20.466 -55.407,10.614 -18.851,-10.616 -16.449,-35.952 -2.866,-51.054 14.248,-14.082 32.699,-18.17 48.189,-14.542 -3.099,-11.873 -3.201,-26.176 0.362,-38.167 3.957,-10.963 9.271,-20.141 15.64,-27.581 -1.543,0.045 -3.099,0.058 -4.664,0.036 -62.793,-0.718 -108.607,-39.225 -112.187,-100.457 -3.128,-53.519 37.113,-98.4 94.069,-97.616 56.956,0.784 107.183,45.76 112.186,100.457 2.695,29.459 -8.279,55.729 -27.879,73.578 32.437,3.048 48.76,35.137 34.393,71.988 z m -106.609,33.816 c -8.487,-6.858 -24.45,-7.099 -39.337,4.568 -12.28,9.937 -15.334,26.822 -6.532,33.83 10.435,8.305 24.823,5.532 37.479,-3.672 15.148,-11.371 18.373,-26.759 8.39,-34.726 z m 84.115,-179.923 c -4.096,-45.315 -45.224,-82.577 -91.859,-83.226 -46.637,-0.65 -79.224,35.482 -77.025,80.874 2.459,50.75 40.444,82.632 91.859,83.226 46.636,0.65 81.122,-35.559 77.025,-80.874 z"
               id="path7184"
               inkscape:connector-curvature="0"
               style="fill:url(#radialGradient7489)" />
          </g>
        </g>
      </g>
    </g>
  </g>
</svg>
