<?xml version="1.0" encoding="UTF-8" standalone="no"?>
<svg xmlns:rdf="http://www.w3.org/1999/02/22-rdf-syntax-ns#" xmlns="http://www.w3.org/2000/svg" height="196.58764" width="256.47998" version="1.1" xmlns:cc="http://creativecommons.org/ns#" xmlns:dc="http://purl.org/dc/elements/1.1/" viewBox="0 0 256.47998 196.58764"><path d="M26.28259,153.09476c0,5.60553,9.62461,11.84566,9.62461,18.24444a3.70123,3.70123,0,0,1-.26441,1.26919c9.0429,1.85086,15.3888,6.24012,15.3888,11.36973,0,6.87472-11.36973,12.53315-25.48935,12.586-.05288.05288-.15865,0-.26441,0C11.31685,196.56414,0,191.06435,0,184.24253c0-5.12961,6.87472-9.25443,15.23015-11.4755,0,2.80278,9.51884,11.79278,9.73037,15.38879a4.68983,4.68983,0,0,1,.05288.68747,1.9839,1.9839,0,0,1-.05288.52883c2.06242-1.05763,2.06242-4.38924,2.06242-4.38924,0-7.8795-9.25443-11.31685-9.25443-19.09058,0-2.96142,1.42783-5.18247,2.74989-5.81706v2.16817c0,5.60553,9.99479,11.89856,9.99479,17.02815v1.63936c2.32683-.84611,2.32683-5.0767,2.32683-5.0767,0-7.03338-9.30731-10.99956-9.30731-19.03771,0-3.0143,1.42783-5.23535,2.74989-5.87Z" fill="#bf0310"/><path d="M71.33845,194.396a24.99833,24.99833,0,0,1-8.35543-1.375v-8.35541h1.16341c.63458,4.44212,4.01907,7.7737,7.93237,7.7737,3.86042,0,6.61031-2.11529,6.61031-5.44689,0-3.596-3.64889-5.23537-6.0286-6.39877l-3.49025-1.74513c-3.33159-1.63934-5.97571-4.28347-5.97571-7.98524,0-4.65367,3.49024-8.61986,10.10054-8.61986a24.05736,24.05736,0,0,1,8.30255,1.5336v7.45642H80.43423c-.74035-4.01907-2.96141-7.13914-7.50931-7.13914-3.38448,0-5.394,2.32684-5.394,4.65366,0,3.01431,2.11529,4.38925,4.60077,5.65844l3.49024,1.69222c3.173,1.58648,7.13914,4.2306,7.13914,8.7785C82.76107,190.58841,78.742,194.396,71.33845,194.396Z" fill="#bf0310"/><path d="M92.0155,194.23733a4.69089,4.69089,0,0,1-4.971-4.971c0-2.11529,1.5336-3.75466,4.971-4.971l6.0286-2.16817v-1.85088c0-2.80278-1.26917-4.495-3.22583-4.495a4.04016,4.04016,0,0,0-3.38448,1.69225,2.69584,2.69584,0,0,0-.31729,1.42782,3.99341,3.99341,0,0,0,.52882,1.63937l-2.96142,1.32206a5.1217,5.1217,0,0,1-.79324-2.48548c0-.15864.05289-.37019.05289-.47595.21152-1.58646,1.58646-2.64412,3.43736-3.75465a8.96463,8.96463,0,0,1,4.5479-1.42784c5.60554,0,6.61031,4.44214,6.61031,5.87v9.14867c0,1.4807.10577,2.37972,1.32206,2.37972a2.70529,2.70529,0,0,0,1.05765-.15864l1.05765-.37019v1.32206l-6.24013,2.32684a4.39921,4.39921,0,0,1-1.53358-2.90855C96.722,192.598,94.18369,194.23733,92.0155,194.23733Zm1.85089-8.93715a3.47611,3.47611,0,0,0-2.59125,3.27871,2.82262,2.82262,0,0,0,2.96143,2.96141,6.774,6.774,0,0,0,3.80753-1.4807v-6.55742Z" fill="#bf0310"/><path d="M107.4043,193.76138v-1.05766l1.42782-.2644a1.7519,1.7519,0,0,0,1.5336-1.69226V178.95427c0-1.05763-.47594-1.58648-1.37495-1.58648a2.29171,2.29171,0,0,0-1.00477.21153l-.5817.21153V176.4688l6.39877-2.7499h.95189v3.27871a8.91138,8.91138,0,0,1,6.34588-3.27871c4.5479,0,6.71608,3.22583,6.71608,6.9805V190.747a1.76047,1.76047,0,0,0,1.58648,1.69226l1.4807.2644v1.05766H120.25473v-1.05766l1.48072-.2644a1.85475,1.85475,0,0,0,1.63936-1.69226v-9.99478c0-1.32206-.37019-4.28347-3.96619-4.28347a6.92693,6.92693,0,0,0-4.5479,2.06241V190.747a1.80229,1.80229,0,0,0,1.58648,1.69226l1.48072.2644v1.05766Z" fill="#bf0310"/><path d="M146.32579,176.41593h-6.293v10.94666c0,2.4326,1.32206,3.75466,3.173,3.75466a6.60278,6.60278,0,0,0,3.12006-.84613l.47594,1.05765-4.01907,2.53836s-.79325.10576-1.2163.10576c-3.86042,0-5.97572-2.22107-5.97572-6.98047V176.41593h-3.27871v-1.11055s4.91807-1.85088,6.87472-6.39877h.84613v5.60556H147.119Z" fill="#bf0310"/><path d="M153.83511,194.23733a4.6909,4.6909,0,0,1-4.971-4.971c0-2.11529,1.53361-3.75466,4.971-4.971l6.0286-2.16817v-1.85088c0-2.80278-1.26918-4.495-3.27871-4.495a4.01268,4.01268,0,0,0-3.33159,1.69225,2.69572,2.69572,0,0,0-.3173,1.42782,3.99337,3.99337,0,0,0,.52883,1.63937l-2.96143,1.32206a5.12169,5.12169,0,0,1-.79323-2.48548v-.47595c.26442-1.58646,1.63936-2.64412,3.49025-3.75465a8.82607,8.82607,0,0,1,4.5479-1.42784c5.60553,0,6.61031,4.44214,6.61031,5.87v9.14867c0,1.4807.10576,2.37972,1.32206,2.37972a2.70523,2.70523,0,0,0,1.05763-.15864l1.05765-.37019v1.32206l-6.24012,2.32684a4.39923,4.39923,0,0,1-1.5336-2.90855C158.54165,192.598,156.00328,194.23733,153.83511,194.23733Zm1.85089-8.93715a3.4761,3.4761,0,0,0-2.59126,3.27871,2.82261,2.82261,0,0,0,2.96142,2.96141,6.774,6.774,0,0,0,3.80754-1.4807v-6.55742Z" fill="#bf0310"/><path d="M169.22391,193.76138v-1.05766l1.42781-.2644a1.75189,1.75189,0,0,0,1.5336-1.69226V178.95427c0-1.05763-.47594-1.58648-1.37493-1.58648a2.68944,2.68944,0,0,0-1.05766.21153l-.52882.21153V176.4688l6.39877-2.7499h.95189v3.27871a8.91138,8.91138,0,0,1,6.34588-3.27871c4.5479,0,6.71608,3.22583,6.71608,6.9805V190.747a1.76046,1.76046,0,0,0,1.58649,1.69226l1.4807.2644v1.05766h-10.6294v-1.05766l1.48073-.2644a1.85475,1.85475,0,0,0,1.63934-1.69226v-9.99478c0-1.32206-.37018-4.28347-3.96619-4.28347a7.19493,7.19493,0,0,0-4.60078,2.06241V190.747a1.85475,1.85475,0,0,0,1.63937,1.69226l1.4807.2644v1.05766Z" fill="#bf0310"/><path d="M204.07344,194.18442c-4.2306,0-9.25443-3.06717-9.25443-9.78325a10.598,10.598,0,0,1,10.73514-10.68227,12.0578,12.0578,0,0,1,4.60076.84613V164.46447c0-1.05765-.58168-1.37493-1.26915-1.37493a5.31036,5.31036,0,0,0-1.26919.21151l-.899.31731v-1.32206l6.98048-2.90853h.95189v29.08536c0,1.69222.26442,2.64412,1.4807,2.64412a2.83906,2.83906,0,0,0,1.05765-.15864l1.05766-.3702v1.32206l-6.24013,2.27395a4.36946,4.36946,0,0,1-1.69224-2.90853A8.52289,8.52289,0,0,1,204.07344,194.18442Zm2.00955-18.61461c-3.22583,0-6.55744,2.06241-6.55744,7.93237,0,4.971,2.53835,7.98524,6.45167,7.98524a4.65667,4.65667,0,0,0,4.17769-2.11529V177.89663A4.25941,4.25941,0,0,0,206.083,175.56981Z" fill="#bf0310"/><path d="M224.7505,182.39161v.21153c0,5.87,3.38448,8.83139,7.61506,8.83139A9.21241,9.21241,0,0,0,238.024,189.425v1.798a11.57148,11.57148,0,0,1-7.82661,2.96143c-6.9805,0-10.04766-5.12961-10.04766-10.04768a10.20441,10.20441,0,0,1,10.10054-10.41785c4.70654,0,8.35541,3.27873,8.35541,8.091v.5817Zm9.20155-1.798v-.10577c0-3.33159-1.90377-4.91806-4.12485-4.91806-2.48546,0-4.38923,1.63934-4.91806,5.02383Z" fill="#bf0310"/><path d="M241.24983,193.76138v-1.05766l1.4807-.2644a1.75108,1.75108,0,0,0,1.4807-1.69226V178.95427c0-1.05763-.47595-1.58648-1.37492-1.58648a2.45268,2.45268,0,0,0-1.00478.21153l-.58171.21153V176.4688l6.34588-2.7499h.9519v4.28347c1.58646-3.06717,3.49024-4.33635,5.71132-4.33635,1.7451,0,2.22105.42307,2.22105.42307v4.65366h-.899a2.17294,2.17294,0,0,0-2.4326-1.85089,4.61711,4.61711,0,0,0-4.44214,2.96142V190.747a1.96687,1.96687,0,0,0,1.74513,1.69226l2.11529.2644v1.05766Z" fill="#bf0310"/><path d="M88.15507,24.273a.7844.7844,0,0,0,0,.68747,1.15329,1.15329,0,0,0,.26441.21155L107.986,36.54178h.05287a.64542.64542,0,0,0,.68748,0l.15865-.15867c0-.05288,0-.10576.05287-.10576a25.0834,25.0834,0,0,1,7.50931-8.35541,25.42008,25.42008,0,0,1,10.365-4.33637h.10576a.4009.4009,0,0,0,.21152-.10576.56532.56532,0,0,0,.26443-.58171v-.05288L123.21615.58168V.5288a.40393.40393,0,0,0-.10577-.2644A.67365.67365,0,0,0,122.52868,0a.05179.05179,0,0,0-.05288.05288V0A50.037,50.037,0,0,0,102.592,8.35541,49.136,49.136,0,0,0,88.15507,24.273Z" fill="#7b047d"/><path d="M76.944,67.31939a.63673.63673,0,0,0,.52882.37016.67076.67076,0,0,0,.3173-.05288l21.153-8.14389H98.996a.6503.6503,0,0,0,.37018-.58171.39977.39977,0,0,0-.05288-.21155v-.10576a25.66523,25.66523,0,0,1,1.32206-21.89334l.05288-.05288c0-.05288.05289-.15864.05289-.21152a.7538.7538,0,0,0-.3173-.63459h-.05288L80.43424,25.06629h-.05288a.47678.47678,0,0,0-.26442-.05288.75764.75764,0,0,0-.58171.2644v.05288A49.53742,49.53742,0,0,0,76.944,67.31939Z" fill="#00529c"/><path d="M103.80829,102.69775a.60691.60691,0,0,0,.63458-.21155,1.15565,1.15565,0,0,0,.15865-.2644l6.71607-21.62891.05288-.05288a.607.607,0,0,0-.21152-.63462.27477.27477,0,0,0-.21153-.10576c0-.05288-.05289-.05288-.10576-.05288a25.31533,25.31533,0,0,1-16.2878-14.64844.05179.05179,0,0,1-.05289-.05288.73012.73012,0,0,0-.15865-.21152.56243.56243,0,0,0-.6346-.10576h-.05287l-20.78281,8.99-.05288.05288a.28337.28337,0,0,0-.21153.15867.56236.56236,0,0,0-.10576.63456v.05288a50.09777,50.09777,0,0,0,31.30643,28.08061Z" fill="#008cce"/><path d="M147.96515,103.75539a.6066.6066,0,0,0,.26442-.63456.40388.40388,0,0,0-.10577-.26443L135.48488,84.03022v-.05288a.87574.87574,0,0,0-.63459-.2644c-.05288.05288-.15864.05288-.21152.10576-.05288,0-.05288.05288-.10576.05288a25.84225,25.84225,0,0,1-21.62894,3.54314h-.10576a.318.318,0,0,0-.21153-.05288.795.795,0,0,0-.52882.47592v.05288l-6.02861,21.84049c0,.10576-.05289.21152,0,.31728a.75054.75054,0,0,0,.42306.47592h.05288a49.74141,49.74141,0,0,0,21.52316,1.2163A49.19707,49.19707,0,0,0,147.96515,103.75539Z" fill="#008f44"/><path d="M176.73322,70.0164a.60757.60757,0,0,0-.3173-.58174.404.404,0,0,0-.26442-.10576l-22.58082-1.7451h-.05288a.6075.6075,0,0,0-.5817.31728.40093.40093,0,0,0-.10577.21152v.10579a25.34919,25.34919,0,0,1-3.17294,10.788,26.0737,26.0737,0,0,1-7.45643,8.40832c-.05288,0-.05288,0-.10576.05288l-.15864.15864a.79074.79074,0,0,0,.05287.68747h.05289l13.37926,18.29734c.05288.10576.15865.15864.21152.21152a.5542.5542,0,0,0,.6346-.05288h.05288a49.62884,49.62884,0,0,0,20.41264-36.7533Z" fill="#feee00"/><path d="M168.21913,26.38836a.8654.8654,0,0,0-.63459-.10579.528.528,0,0,0-.26442.21155L151.7198,42.88766l-.05289.05288a.63106.63106,0,0,0-.10576.6875l.15865.15864c0,.05288.05288.05288.05288.10576a25.94728,25.94728,0,0,1,6.39877,9.20155,26.36473,26.36473,0,0,1,1.798,11.1053v.10576a.318.318,0,0,0,.05288.21155.6081.6081,0,0,0,.52883.42307h.05288l22.63368,1.11051h.05289a2.29027,2.29027,0,0,1,.2644-.05288.76429.76429,0,0,0,.37019-.52883v-.05288a49.90214,49.90214,0,0,0-15.70609-39.02724Z" fill="#d88d00"/><path d="M128.61017,6.13436a.64534.64534,0,0,0-.47595.42307.6707.6707,0,0,0-.05288.31728l3.33159,22.42217v.05288a.78.78,0,0,0,.47595.52883h.31728a25.6979,25.6979,0,0,1,21.04723,6.08148l.05289.05288c.10575.05288.15864.10576.21152.10576a.64136.64136,0,0,0,.68748-.15864v-.05288l14.86-17.13392c.05288-.10576.10576-.15864.15864-.2644a.58714.58714,0,0,0-.21152-.58171v-.05288A49.71012,49.71012,0,0,0,128.61017,6.13436Z" fill="#bf0310"/><path d="M127.23523,38.49843a18.40309,18.40309,0,1,0,18.40309,18.4031A18.45035,18.45035,0,0,0,127.23523,38.49843Z" fill="#fff"/><path d="M140.826,67.478a9.5902,9.5902,0,0,0,.47594-2.32684,11.15934,11.15934,0,0,1-1.2163,1.00478,11.00151,11.00151,0,0,1-4.01907,1.85087l-3.64889-3.96619-.05288.05288,2.64412,4.65368a10.92527,10.92527,0,0,1-3.0143,3.27869,9.22946,9.22946,0,0,1-1.32206.84614,10.80376,10.80376,0,0,0,2.32681.2644,17.188,17.188,0,0,1-11.58125,0,11.3075,11.3075,0,0,0,2.37971-.2644,7.39814,7.39814,0,0,1-1.375-.84614,10.925,10.925,0,0,1-3.01429-3.27869l2.64412-4.65368-.05289-.05288L118.351,68.00684A11.40788,11.40788,0,0,1,114.3319,66.156a11.15791,11.15791,0,0,1-1.21629-1.00478,13.00015,13.00015,0,0,0,.47594,2.32684,17.03385,17.03385,0,0,1-3.596-10.57649v-.52886a12.26437,12.26437,0,0,0,1.00476,2.22108c.10577-.47595.21153-1.00475.37019-1.53358a11.38969,11.38969,0,0,1,2.27393-3.91331l5.18249,1.05766v-.05291l-4.86518-2.22105a11.4831,11.4831,0,0,1,.5288-4.33635,9.602,9.602,0,0,1,.58171-1.4807,9.53018,9.53018,0,0,0-2.22105,1.26915,17.30676,17.30676,0,0,1,9.73037-7.03338,8.85327,8.85327,0,0,0-1.95664,1.69225c.52882-.05288,1.05763-.10576,1.58646-.10576a10.49162,10.49162,0,0,1,4.38925.899l.58171,5.23537h.05288l.63458-5.23537a10.24392,10.24392,0,0,1,4.33636-.899c.52883,0,1.05766.05288,1.58649.10576a9.88411,9.88411,0,0,0-1.90377-1.69225,17.526,17.526,0,0,1,9.67749,6.9805,11.54423,11.54423,0,0,0-2.22107-1.21627,9.5885,9.5885,0,0,1,.63459,1.4807,10.43955,10.43955,0,0,1,.47595,4.33635l-4.86519,2.22105.05287.05291,5.1825-1.05766a11.29553,11.29553,0,0,1,2.22107,3.91331c.15864.52883.2644,1.05763.37016,1.53358a9.46908,9.46908,0,0,0,1.00478-2.22108c0,.21155.05287.37019.05287.52886A17.07611,17.07611,0,0,1,140.826,67.478ZM127.23523,38.18115a18.74685,18.74685,0,1,0,18.72039,18.72039A18.76621,18.76621,0,0,0,127.23523,38.18115Z" fill="#201815"/><polygon points="119.62 54.469 122.529 63.353 131.889 63.353 134.797 54.469 127.235 48.969 119.62 54.469" fill="#201815"/><polygon points="86.939 149.076 72.449 149.076 72.449 123.586 79.006 123.586 79.006 143.311 86.939 143.311 86.939 149.076" fill="#201815"/><path d="M98.996,133.95129a4.72329,4.72329,0,0,0-4.81231,4.91807c0,2.85563,1.798,5.18247,4.60078,5.18247a4.87974,4.87974,0,0,0,4.971-5.02383A4.75769,4.75769,0,0,0,98.996,133.95129Zm-10.99955,5.02385c0-5.71132,4.17771-10.73515,9.78325-10.73515a7.92141,7.92141,0,0,1,5.81708,2.48547V128.663h6.02861v20.41264H103.491V147.119a8.54034,8.54034,0,0,1-6.0286,2.48548C91.85685,149.60449,87.99643,145.53253,87.99643,138.97513Z" fill="#201815"/><polygon points="127.711 149.076 113.221 149.076 113.221 123.586 119.779 123.586 119.779 143.311 127.711 143.311 127.711 149.076" fill="#201815"/><path d="M136.48965,149.07568h-6.08148V128.66305h6.08148Zm-6.66318-25.648a3.67693,3.67693,0,1,1,3.596,3.75465A3.637,3.637,0,0,1,129.82648,123.42768Z" fill="#201815"/><path d="M149.34009,133.52824c-2.85564,0-4.28348,2.3797-4.28348,4.91806,0,2.64412,1.5336,4.81231,4.2306,4.81231a4.66235,4.66235,0,0,0,4.70654-4.81231C153.99375,135.7493,152.46017,133.52824,149.34009,133.52824Zm-10.20631,4.91806c0-5.49977,3.49024-10.20631,8.77848-10.20631a7.59847,7.59847,0,0,1,6.0286,2.697v-2.27395h5.81708v17.98c0,6.34589-4.65366,9.67749-10.31209,9.67749-4.91806,0-9.25443-2.53836-9.94189-7.13914h6.87471a3.12746,3.12746,0,0,0,3.22583,1.63934c2.11531,0,4.072-1.00475,4.072-3.22581a7.44664,7.44664,0,0,0-.05288-1.5336,9.06981,9.06981,0,0,1-5.7642,2.37971C142.6769,148.44109,139.13379,144.05183,139.13379,138.4463Z" fill="#201815"/><path d="M173.34874,133.95129a4.68044,4.68044,0,0,0-4.75943,4.91807c0,2.85563,1.74513,5.18247,4.60078,5.18247a4.911,4.911,0,0,0,4.971-5.02383A4.79851,4.79851,0,0,0,173.34874,133.95129Zm-10.94667,5.02385c0-5.71132,4.17771-10.73515,9.78325-10.73515a7.806,7.806,0,0,1,5.76418,2.48547V128.663h6.0286v20.41264h-6.13436V147.119a8.39286,8.39286,0,0,1-6.0286,2.48548C166.2096,149.60449,162.40207,145.53253,162.40207,138.97513Z" fill="#201815"/></svg>