<?xml version="1.0" encoding="UTF-8" standalone="no"?>
<!-- Created with Inkscape (http://www.inkscape.org/) -->

<svg
   xmlns:dc="http://purl.org/dc/elements/1.1/"
   xmlns:cc="http://creativecommons.org/ns#"
   xmlns:rdf="http://www.w3.org/1999/02/22-rdf-syntax-ns#"
   xmlns:svg="http://www.w3.org/2000/svg"
   xmlns="http://www.w3.org/2000/svg"
   xmlns:xlink="http://www.w3.org/1999/xlink"
   xmlns:sodipodi="http://sodipodi.sourceforge.net/DTD/sodipodi-0.dtd"
   xmlns:inkscape="http://www.inkscape.org/namespaces/inkscape"
   width="631.20715"
   height="877.30457"
   id="svg2"
   version="1.1"
   inkscape:version="0.48.4 r9939"
   sodipodi:docname="Logo_serie_B_Eurobet.svg">
  <defs
     id="defs4">
    <linearGradient
       id="linearGradient3861">
      <stop
         style="stop-color:#d00000;stop-opacity:1;"
         offset="0"
         id="stop3863" />
      <stop
         id="stop3869"
         offset="0.5"
         style="stop-color:#ffffff;stop-opacity:1;" />
      <stop
         style="stop-color:#d00000;stop-opacity:1;"
         offset="1"
         id="stop3865" />
    </linearGradient>
    <linearGradient
       id="linearGradient3851">
      <stop
         style="stop-color:#ffd800;stop-opacity:1;"
         offset="0"
         id="stop3853" />
      <stop
         id="stop3859"
         offset="0.5"
         style="stop-color:#ffffff;stop-opacity:1;" />
      <stop
         style="stop-color:#ffd800;stop-opacity:1;"
         offset="1"
         id="stop3855" />
    </linearGradient>
    <linearGradient
       id="linearGradient3841">
      <stop
         style="stop-color:#248845;stop-opacity:1;"
         offset="0"
         id="stop3843" />
      <stop
         id="stop3849"
         offset="0.5"
         style="stop-color:#ffffff;stop-opacity:1;" />
      <stop
         style="stop-color:#248845;stop-opacity:1;"
         offset="1"
         id="stop3845" />
    </linearGradient>
    <linearGradient
       id="linearGradient3833">
      <stop
         style="stop-color:#543d6a;stop-opacity:0.39215687;"
         offset="0"
         id="stop3835" />
      <stop
         style="stop-color:#3d3d8b;stop-opacity:0;"
         offset="1"
         id="stop3837" />
    </linearGradient>
    <linearGradient
       inkscape:collect="always"
       xlink:href="#linearGradient3833"
       id="linearGradient3839"
       x1="514.14575"
       y1="447.85876"
       x2="619.77985"
       y2="535.00159"
       gradientUnits="userSpaceOnUse" />
    <linearGradient
       inkscape:collect="always"
       xlink:href="#linearGradient3841"
       id="linearGradient3847"
       x1="657.14282"
       y1="675.90564"
       x2="708.39288"
       y2="692.51282"
       gradientUnits="userSpaceOnUse" />
    <linearGradient
       inkscape:collect="always"
       xlink:href="#linearGradient3851"
       id="linearGradient3857"
       x1="676.96423"
       y1="689.53857"
       x2="708.21436"
       y2="705.60999"
       gradientUnits="userSpaceOnUse" />
    <linearGradient
       inkscape:collect="always"
       xlink:href="#linearGradient3861"
       id="linearGradient3867"
       x1="658.75"
       y1="700.74194"
       x2="692.67859"
       y2="712.52765"
       gradientUnits="userSpaceOnUse" />
  </defs>
  <sodipodi:namedview
     id="base"
     pagecolor="#ffffff"
     bordercolor="#666666"
     borderopacity="1.0"
     inkscape:pageopacity="0.0"
     inkscape:pageshadow="2"
     inkscape:zoom="0.73178693"
     inkscape:cx="-11.155371"
     inkscape:cy="490.43051"
     inkscape:document-units="px"
     inkscape:current-layer="layer1"
     showgrid="false"
     inkscape:window-width="1346"
     inkscape:window-height="840"
     inkscape:window-x="81"
     inkscape:window-y="1"
     inkscape:window-maximized="0"
     fit-margin-top="0"
     fit-margin-left="0"
     fit-margin-right="0"
     fit-margin-bottom="0" />
  <metadata
     id="metadata7">
    <rdf:RDF>
      <cc:Work
         rdf:about="">
        <dc:format>image/svg+xml</dc:format>
        <dc:type
           rdf:resource="http://purl.org/dc/dcmitype/StillImage" />
        <dc:title></dc:title>
      </cc:Work>
    </rdf:RDF>
  </metadata>
  <g
     inkscape:label="Livello 1"
     inkscape:groupmode="layer"
     id="layer1"
     style="display:inline"
     transform="translate(-107.70458,-17.946078)">
    <path
       style="color:#000000;fill:#010f99;fill-opacity:1;stroke:none;stroke-width:1.90508878000000000;stroke-linecap:round;stroke-linejoin:round;stroke-miterlimit:4;stroke-opacity:1;stroke-dasharray:none;stroke-dashoffset:0;marker:none;visibility:visible;display:inline;overflow:visible;enable-background:accumulate"
       d="M 312.3125 24.25 C 279.99219 24.490333 21.43325 29.209478 22.34375 118.4375 L 22.34375 753.71875 C 21.39875 835.79605 212.3884 853.0625 315.59375 853.0625 C 418.79909 853.0625 610.00651 833.68085 608.84375 753.71875 L 608.84375 118.4375 C 609.53012 21.693413 315.59375 24.25 315.59375 24.25 C 315.59375 24.25 314.46719 24.233978 312.3125 24.25 z M 305 40.59375 C 308.13895 40.573184 311.206 40.58216 314.1875 40.59375 C 409.59564 40.96464 594.06391 57.211522 593.125 122.09375 L 593.125 422.375 C 594.28776 502.33716 314.1875 500.3125 314.1875 500.3125 C 314.1875 500.3125 37.11749 504.45233 38.0625 422.375 L 38.0625 122.09375 C 38.589539 57.836284 207.69243 41.231292 305 40.59375 z "
       transform="translate(107.70458,17.946078)"
       id="path3001" />
    <path
       style="fill:#ffffff;fill-opacity:1;fill-rule:evenodd;stroke:none"
       d="m 546.49253,562.95806 43.43656,0 c 5.22832,0.75524 9.87258,3.74072 9.09137,9.32913 l -0.75762,16.66751 c -1.35935,5.25081 -5.47195,8.20725 -10.85914,10.10153 4.13683,1.50319 7.86963,3.41041 9.34392,7.57614 l -0.25254,13.38452 c -1.08136,8.43589 -5.06215,14.58997 -12.12183,16.44562 l -46.9721,0 c -5.19257,0.31017 -7.34063,-2.95989 -7.82868,-7.35424 l 6.81853,-59.09393 c 2.24467,-5.90713 5.84212,-7.13235 10.10153,-7.05628 z"
       id="path3855"
       inkscape:connector-curvature="0"
       sodipodi:nodetypes="cccccccccccc" />
    <path
       sodipodi:nodetypes="sscsscs"
       inkscape:connector-curvature="0"
       id="path3831"
       d="m 641.18346,480.57648 c 1.06686,39.6937 -32.1952,72.55721 -71.89775,71.89776 -45.61291,-0.75761 -59.42569,-30.14974 -59.42569,-30.14974 7.92804,-15.33575 17.15729,-25.29115 26.92388,-36.9498 12.24917,-14.62217 25.60302,-23.40047 40.58303,-30.4815 16.155,-7.63645 34.08011,-12.56954 52.35462,-11.51906 0,0 10.7043,9.01456 11.46191,37.20234 z"
       style="fill:#ffffff;fill-opacity:1;stroke:none;display:inline"
       transform="translate(-26.882884,-22.662802)" />
    <path
       style="color:#000000;fill:none;stroke:#9d9d9d;stroke-width:4;stroke-linecap:round;stroke-linejoin:round;stroke-miterlimit:4;stroke-opacity:1;stroke-dasharray:none;stroke-dashoffset:0;marker:none;visibility:visible;display:inline;overflow:visible;enable-background:accumulate"
       d="m 736.90628,788.96491 0,-666.95322 C 737.89196,44.308591 533.23739,19.946078 423.30723,19.946078 c -109.93016,0 -314.08839,26.538372 -313.59905,102.065612 l 0,666.95322 c -0.99209,86.16641 203.43762,104.28571 313.59905,104.28571 110.16143,0 314.81974,-20.33985 313.59905,-104.28571 z"
       id="path2997"
       inkscape:connector-curvature="0"
       sodipodi:nodetypes="ccaccac" />
    <path
       transform="matrix(0.79863552,-0.60181502,0.60181502,0.79863552,24.132085,333.58881)"
       style="fill:#010f99;fill-opacity:1;stroke:none"
       d="m 550.13653,129.97775 c -0.54363,18.26728 -17.03583,44.39503 -34.6154,44.09496 -17.57957,-0.30007 -28.93065,-21.89918 -29.17986,-39.90307 -0.24921,-18.00389 14.56883,-48.219247 33.26766,-48.240894 18.69883,-0.02165 31.07123,25.781724 30.5276,44.049004 z"
       id="path3007"
       inkscape:connector-curvature="0"
       sodipodi:nodetypes="zzzzz" />
    <path
       style="color:#000000;fill:#2d7634;fill-opacity:1;stroke:none;stroke-width:2;marker:none;visibility:visible;display:inline;overflow:visible;enable-background:accumulate"
       d="m 494.97475,175.54977 c -22.49093,-19.62417 -50.88974,-29.7138 -78.05083,-40.3915 -33.35442,-13.11245 -69.13849,-19.27049 -104.13683,-26.41609 -11.83754,-1.63318 -44.60427,-12.746846 -40.17112,7.47806 16.714,16.61721 39.05339,26.05702 60.46307,34.98992 26.3786,11.00611 54.38103,7.31186 83.14625,13.43314 23.95188,5.097 55.1724,12.85265 69.63759,24.72226 16.3624,13.42639 -18.38059,35.71833 -33.05095,45.2539 -24.04617,13.35424 -49.5293,22.15918 -71.55948,41.28774 -19.24097,16.70672 13.94823,27.26354 33.43824,29.26815 30.18951,3.10508 61.84677,0.11425 88.03306,16.57841 16.72092,14.18943 1.38413,33.08895 -12.71409,42.9407 -20.30816,14.19122 -40.6488,27.95521 -61.69094,40.7592 -17.42997,11.53632 -31.65336,34.51327 -21.61154,55.31086 7.12869,16.41387 34.49389,34.818 41.84962,31.05705 6.9209,-11.90954 -11.10574,-30.76781 4.48904,-46.98022 20.21933,-21.0201 44.36997,-38.86812 65.48758,-56.00544 19.04462,-15.45505 32.01138,-26.30358 41.73257,-44.35855 10.8052,-21.24978 -7.70984,-41.07099 -27.85414,-45.66272 -28.86001,-10.40265 -60.29016,-11.08133 -89.31892,-20.33606 -21.92377,-10.53381 6.11758,-23.5317 15.89202,-30.36779 19.41213,-12.17916 45.21347,-22.44274 51.80679,-46.60857 1.37992,-11.1639 -8.12251,-19.23872 -15.81699,-25.95245 z"
       id="path3031"
       inkscape:connector-curvature="0"
       sodipodi:nodetypes="ssccssscsscscccsscccccs" />
    <path
       style="color:#000000;fill:#de9308;fill-opacity:1;stroke:none;stroke-width:2;marker:none;visibility:visible;display:inline;overflow:visible;enable-background:accumulate"
       d="m 372.67857,317.36218 c -1.40357,1.37949 -1.375,3.45454 -0.90194,4.68828 1.22186,3.18664 2.75579,5.99412 3.3634,9.16321 0.68211,3.55768 0.87495,7.7786 -0.35185,11.20089 -1.98447,5.5359 -5.24308,10.48333 -9.34607,14.8485 -2.71507,2.88856 -5.20133,5.66658 -8.80902,7.55326 -15.15071,7.92321 -29.88827,16.60578 -45.30087,24.02261 -10.17591,4.89683 -20.08758,10.41529 -29.58411,16.49269 -4.44467,2.84442 -8.37445,6.28624 -11.65623,10.51539 -2.9546,3.80752 -5.89967,7.42213 -8.02898,11.83442 -3.41009,7.06626 -6.74514,14.19191 -8.00953,21.87222 -0.87639,5.32349 -1.02479,10.98497 0.1331,16.22808 0.74706,3.38282 1.59421,6.70579 4.49535,9.1085 1.82549,1.51187 4.65695,3.47182 6.90361,2.22277 3.64485,-2.02639 4.48197,-6.56406 6.8282,-9.74744 5.10284,-6.92357 10.4677,-13.58138 16.52137,-19.75031 7.49851,-7.64128 15.39916,-14.94792 24.46483,-20.53749 14.35997,-8.85384 30.72225,-14.14609 45.23539,-22.72337 12.34584,-7.29641 23.99018,-15.67644 35.46775,-24.31915 5.78779,-4.35826 11.17066,-9.20589 15.26135,-15.08187 2.38195,-3.42149 4.51413,-7.67413 4.45615,-11.7769 -0.0634,-4.48591 -0.39894,-8.97184 -3.10117,-12.96672 -3.86104,-5.70803 -8.48963,-10.75172 -13.40187,-15.49001 -4.46287,-4.30483 -13.23147,-7.77975 -15.98484,-8.75876 -3.23093,-1.14881 -6.2775,-0.93455 -8.65402,1.4012 z"
       id="path3035"
       inkscape:connector-curvature="0"
       sodipodi:nodetypes="sssssssssssssssssssssssss" />
    <path
       style="color:#000000;fill:#e69000;fill-opacity:1;stroke:none;stroke-width:2;marker:none;visibility:visible;display:inline;overflow:visible;enable-background:accumulate"
       d="m 576.42857,399.1479 c 1.70718,8.66505 2.12422,17.52065 2.5,25.71428 5.90775,6.55505 12.547,12.01284 20.35715,15.71429 2.04327,-2.59959 3.90078,-5.38493 5,-8.92857 -2.02381,-8.78347 -4.04762,-13.86517 -6.07143,-18.92858 -4.18814,-6.1477 -9.33055,-9.71633 -15.35715,-13.57142 -2.14286,-0.38957 -4.28571,-0.55649 -6.42857,0 z"
       id="path3038"
       inkscape:connector-curvature="0"
       sodipodi:nodetypes="ccccccc" />
    <path
       style="color:#000000;fill:#f73749;fill-opacity:1;stroke:none;stroke-width:2;marker:none;visibility:visible;display:inline;overflow:visible;enable-background:accumulate"
       d="m 519.28572,439.86218 c 10.72659,2.50571 21.48639,6.55589 30.35714,13.21429 0.74726,10.83333 1.34128,21.66667 -0.71429,32.5 -8.16651,4.7384 -16.36574,9.41138 -25,13.21428 -10.08037,-3.61086 -17.27574,-7.94297 -23.57143,-12.5 -2.53966,-7.10319 -3.25135,-16.03437 -3.92857,-25 5.25395,-7.83221 12.40281,-15.4723 22.85715,-21.42857 z"
       id="path3040"
       inkscape:connector-curvature="0"
       sodipodi:nodetypes="ccccccc" />
    <path
       style="color:#000000;fill:#010f99;fill-opacity:1;stroke:none;stroke-width:2;marker:none;visibility:visible;display:inline;overflow:visible;enable-background:accumulate"
       d="m 596.78572,488.43361 c -6.529,4.21056 -11.38606,8.08674 -24.28572,13.57143 -2.73553,5.95281 -7.84728,11.50958 -12.5,17.14286 6.70107,-1.69654 12.85022,-2.36809 21.78572,-8.21429 6.82244,-4.09466 11.17208,-9.60235 15.71428,-15 z"
       id="path3042"
       inkscape:connector-curvature="0"
       sodipodi:nodetypes="cccccc" />
    <path
       transform="translate(-26.882884,-22.662802)"
       style="fill:url(#linearGradient3839);fill-opacity:1;stroke:none;display:inline"
       d="m 641.18346,480.57648 c 1.06686,39.6937 -32.1952,72.55721 -71.89775,71.89776 -45.61291,-0.75761 -59.42569,-30.14974 -59.42569,-30.14974 7.92804,-15.33575 17.15729,-25.29115 26.92388,-36.9498 12.24917,-14.62217 25.60302,-23.40047 40.58303,-30.4815 16.155,-7.63645 34.08011,-12.56954 52.35462,-11.51906 0,0 10.7043,9.01456 11.46191,37.20234 z"
       id="path3049"
       inkscape:connector-curvature="0"
       sodipodi:nodetypes="sscsscs" />
    <path
       style="fill:#ffffff;fill-opacity:1;stroke:none"
       d="m 326.27927,562.29071 c -0.16836,3.70389 -0.55861,7.97921 -0.72697,11.6831 -13.72124,-0.0842 -27.22058,0.0842 -40.94182,0 -7.09112,2.51186 -6.1957,12.50581 -1.32991,14.35164 11.58985,4.8726 24.53703,8.85198 35.42256,12.58881 4.20141,2.48885 6.68362,7.71772 6.67912,11.79753 0.26348,9.36398 -4.75169,21.145 -13.66037,23.08337 -17.02807,1.37233 -35.77603,0.32098 -51.10252,0 0.4209,-3.70389 0.84179,-7.81723 1.26269,-11.52112 14.73139,0.0842 29.46278,-0.0842 44.19417,0 7.23161,-4.37762 5.16973,-13.29278 -2.03489,-14.88292 -10.62617,-3.85659 -21.75576,-6.56806 -31.91729,-11.49288 -3.48318,-1.68813 -5.53568,-5.14683 -5.79092,-8.41549 -0.25524,-3.26866 -0.50552,-13.26095 1.59608,-17.42368 3.17266,-6.97626 8.90453,-9.89135 16.74267,-9.76836 13.86913,0.1585 27.73827,-0.1585 41.6074,0 z"
       id="path3058"
       inkscape:connector-curvature="0"
       sodipodi:nodetypes="cccccccccccszccc" />
    <path
       style="fill:#ffffff;fill-opacity:1;fill-rule:nonzero;stroke:none"
       d="m 380.06989,627.10832 c -10.52242,0 -21.04484,-2e-5 -31.56726,-2e-5 -3.0414,-1.14667 -4.76157,-1.90775 -5.53989,-5.36179 0.25685,-5.61811 1.16706,-16.82574 1.16706,-16.82574 0,0 -0.52474,-14.47706 7.55782,-14.31387 5.89024,-0.19967 16.26044,0 16.26044,0 7.23701,0.16473 6.69864,8.96101 4.37981,12.47966 l -28.05526,-0.2219 -0.75761,9.28078 c 0,0 21.8235,0.0631 35.54474,0.0631 6.95453,-3.83103 7.14083,-12.44706 6.69584,-18.72156 0.21414,-4.77497 -5.25319,-11.40902 -10.71086,-11.98283 -3.34354,-0.18191 -9.7394,-0.03 -9.7394,-0.03 l -19.20181,0 c -7.7658,0.51256 -11.99138,9.33841 -12.69866,16.62166 0,0 -1.47344,18.38736 -1.82228,26.99216 -0.19062,5.17117 5.05403,10.08495 11.67568,11.39488 11.64469,-0.005 36.44741,0 36.44741,0 0,0 1.196,-6.88623 1.3305,-9.37457 z"
       id="path3830"
       inkscape:connector-curvature="0"
       sodipodi:nodetypes="cccccccccccccccccccc" />
    <path
       style="fill:#ffffff;fill-opacity:1;fill-rule:evenodd;stroke:none"
       d="m 424.76914,581.47417 -0.63134,9.13273 -12.2481,0 c -4.43086,1.61056 -7.57363,4.97354 -7.96928,13.23033 l -2.51106,32.64564 -11.99555,0 3.91434,-40.1842 c 0.93572,-6.97128 5.23793,-11.90013 13.55331,-14.8245 z"
       id="path3833"
       inkscape:connector-curvature="0"
       sodipodi:nodetypes="ccccccccc" />
    <path
       style="fill:#ffffff;fill-opacity:1;fill-rule:evenodd;stroke:none"
       d="m 430.19872,581.47417 10.6066,0 -5.17704,55.0087 -11.11167,0 z"
       id="path3836"
       inkscape:connector-curvature="0"
       sodipodi:nodetypes="ccccc" />
    <path
       style="fill:#ffffff;fill-opacity:1;fill-rule:evenodd;stroke:none"
       d="m 432.59783,562.95806 10.73287,0 -0.88389,10.33927 -10.73287,0 z"
       id="path3853"
       inkscape:connector-curvature="0"
       sodipodi:nodetypes="ccccc" />
    <path
       style="fill:#ffffff;fill-opacity:1;fill-rule:evenodd;stroke:none"
       d="m 225.26402,678.0516 -1.26269,11.49505 -42.17387,0 c -2.2322,0.25544 -3.14727,1.06575 -3.53554,2.49461 l -1.51522,16.92006 43.24715,0 -1.07329,10.6066 -42.78354,0 -2.31246,17.66466 c -0.48323,2.23336 0.79582,2.92561 3.22326,2.66466 l 42.37782,0 -1.01015,11.43817 -52.78047,0 c -3.22011,0.18541 -6.35878,-1.97188 -6.31346,-4.74591 l 6.566,-60.35661 c 0.98425,-3.36995 2.22009,-7.45382 7.82868,-8.18129 z"
       id="path3861"
       inkscape:connector-curvature="0"
       sodipodi:nodetypes="ccccccccccccccccc" />
    <path
       style="fill:#ffffff;fill-opacity:1;fill-rule:evenodd;stroke:none"
       d="m 230.06224,678.0516 12.87945,0 -5.61449,53.89069 c -0.64792,3.46905 -1.13962,6.64351 5.36195,7.95495 l 19.69797,0 c 8.2479,-0.80424 10.31088,-4.81861 11.36422,-9.72272 l 4.79822,-52.12292 13.13199,0 -5.55584,57.17368 c -3.43562,11.82437 -11.65974,16.45168 -20.96067,16.11013 l -25.25381,0 c -8.32268,-0.151 -16.90295,-3.9631 -16.16244,-14.5949 z"
       id="path3863"
       inkscape:connector-curvature="0"
       sodipodi:nodetypes="ccccccccccccc" />
    <path
       style="fill:#ffffff;fill-opacity:1;fill-rule:evenodd;stroke:none"
       d="m 291.96429,751.33541 13.39285,0 L 310,692.10197 c 0.59942,-1.78153 1.28355,-2.64082 3.75,-2.55532 l 29.28571,0 c 6.01847,-0.25461 7.00942,2.49759 6.42858,6.66247 l -1.34378,13.21428 c -0.19451,4.18457 -3.44046,5.06652 -5.79908,5 l -18.21429,0 c -4.69518,-0.64756 -6.40534,1.6899 -7.32143,4.82143 -0.31876,1.41566 -0.75823,2.76987 -0.17857,4.64286 l 25.05603,27.44772 16.72969,0 -25.53572,-26.73341 16.96429,0.17858 c 7.22835,-0.94918 10.29271,-5.73151 11.07143,-11.25 0.91577,-8.53549 0.99565,-16.82165 1.25,-25.35715 -0.93257,-5.34224 -4.42598,-9.06425 -11.07143,-10.12183 l -44.28572,0 c -4.58168,0.75869 -7.14094,3.95055 -8.39285,8.51469 z"
       id="path3865"
       inkscape:connector-curvature="0"
       sodipodi:nodetypes="ccccccccccccccccccccc" />
    <path
       style="fill:#ffffff;fill-opacity:1;fill-rule:evenodd;stroke:none"
       d="m 391.93919,678.0516 25.00127,0 c 10.63504,0.42482 21.23671,5.53188 22.22336,18.03027 l -1.51523,26.76904 c -3.57672,20.4574 -14.06691,26.783 -27.02158,28.4845 l -22.22336,0 c -18.2561,-0.9053 -25.68214,-14.0256 -24.74873,-18.88805 l 3.28299,-28.78935 c 2.8504,-14.61202 8.71558,-23.75792 25.00128,-25.60641 z"
       id="path3869"
       inkscape:connector-curvature="0"
       sodipodi:nodetypes="ccccccccc" />
    <path
       style="fill:#010f99;fill-opacity:1;stroke:none"
       d="m 396.23234,689.54665 15.40482,0 c 9.34688,-0.34378 14.4978,5.81605 14.14214,10.52483 l -2.02031,22.4759 c -2.06008,11.69674 -8.83116,17.06791 -15.40482,17.34986 l -19.44544,0 c -8.4033,-0.76494 -12.0663,-5.71878 -11.86929,-10.78387 l 2.77792,-25.25382 c 2.48229,-8.62025 7.872,-14.61539 16.41498,-14.3129 z"
       id="path3867"
       inkscape:connector-curvature="0"
       sodipodi:nodetypes="ccccccccc" />
    <use
       x="0"
       y="0"
       xlink:href="#path3861"
       id="use3877"
       transform="translate(351.53309,0)"
       width="744.09448"
       height="1052.3622" />
    <path
       style="fill:#ffffff;fill-opacity:1;fill-rule:evenodd;stroke:none"
       d="m 646.42857,678.0516 -1.07143,11.49505 -27.85714,0 -6.42857,61.78876 -13.21429,0 6.96429,-61.78876 -26.60714,0 1.07142,-11.49505 z"
       id="path3879"
       inkscape:connector-curvature="0"
       sodipodi:nodetypes="ccccccccc" />
    <path
       style="fill:url(#linearGradient3867);fill-opacity:1;fill-rule:evenodd;stroke:none"
       d="m 651.78571,703.96933 -0.89285,14.64285 c 5.05952,-0.56736 8.47732,-3.7365 16.60714,-3.57143 10.57402,0.21471 17.5,2.40191 26.96429,5 -4.24702,-11.27797 -21.0866,-36.01287 -42.67858,-16.07142 z"
       id="path3885"
       inkscape:connector-curvature="0"
       sodipodi:nodetypes="ccscc" />
    <path
       style="fill:url(#linearGradient3857);fill-opacity:1;fill-rule:evenodd;stroke:none"
       d="m 666.24999,702.54075 3.39287,-13.21428 c 13.91346,-5.63287 27.85081,6.06054 44.28571,2.14286 -2.5376,5.87467 -6.69085,19.88557 -18.92857,15.53571 -9.72121,-3.45537 -20.7312,-6.23227 -28.75001,-4.46429 z"
       id="path3883"
       inkscape:connector-curvature="0"
       sodipodi:nodetypes="cccsc" />
    <path
       style="fill:url(#linearGradient3847);fill-opacity:1;fill-rule:evenodd;stroke:none"
       d="m 657.14285,692.8979 2.22952,-12.52538 c 10.11844,-10.4174 23.50289,0.0302 27.59192,2.16823 6.96967,3.6443 14.52381,-0.66251 21.78571,-1.96428 -3.45226,4.10727 -6.01429,9.10475 -12.14286,10.53571 -16.13337,-2.90271 -26.81629,-4.5486 -39.46429,1.78572 z"
       id="path3881"
       inkscape:connector-curvature="0"
       sodipodi:nodetypes="ccsccc" />
    <path
       style="fill:#010f99;fill-opacity:1;stroke:none"
       d="m 550.55507,573.97381 28.76741,0 c 2.94668,-0.19809 6.9517,1.51447 6.31346,5.38444 l -0.9553,8.08122 c -0.72057,3.30994 -2.72758,6.34653 -6.28055,7.0601 l -30.39233,0.011 z"
       id="path3857"
       inkscape:connector-curvature="0"
       sodipodi:nodetypes="ccccccc" />
    <path
       sodipodi:nodetypes="ccccccc"
       inkscape:connector-curvature="0"
       id="path3112"
       d="m 547.41468,604.89459 28.28427,0 c 2.94668,-0.19809 6.9517,1.51447 6.31346,5.38444 l -0.9553,8.08122 c -0.72057,3.30994 -2.72758,6.34653 -6.28055,7.0601 l -30.39233,0.011 z"
       style="fill:#010f99;fill-opacity:1;stroke:none" />
    <path
       sodipodi:nodetypes="cccccccccccc"
       inkscape:connector-curvature="0"
       id="path3147"
       d="m 457.63346,677.82172 43.43656,0 c 5.22832,0.75524 9.87258,3.74072 9.09137,9.32913 l -0.75762,16.66751 c -1.35935,5.25081 -5.47195,8.20725 -10.85914,10.10153 4.13683,1.50319 7.86963,3.41041 9.34392,7.57614 l -0.25254,13.38452 c -1.08136,8.43589 -5.06215,14.58997 -12.12183,16.44562 l -46.9721,0 c -5.19257,0.31017 -7.34063,-2.95989 -7.82868,-7.35424 l 6.81853,-59.09393 c 2.24467,-5.90713 5.84212,-7.13235 10.10153,-7.05628 z"
       style="fill:#ffffff;fill-opacity:1;fill-rule:evenodd;stroke:none" />
    <path
       sodipodi:nodetypes="ccccccc"
       inkscape:connector-curvature="0"
       id="path3149"
       d="m 460.20844,688.96043 28.76741,0 c 2.94668,-0.19809 6.9517,1.51447 6.31346,5.38444 l -0.9553,8.08122 c -0.72057,3.30994 -2.72758,6.34653 -6.28055,7.0601 l -30.39233,0.011 z"
       style="fill:#010f99;fill-opacity:1;stroke:none" />
    <path
       style="fill:#010f99;fill-opacity:1;stroke:none"
       d="m 457.06805,719.88121 28.28427,0 c 2.94668,-0.19809 6.9517,1.51447 6.31346,5.38444 l -0.9553,8.08122 c -0.72057,3.30994 -2.72758,6.34653 -6.28055,7.0601 l -30.39233,0.011 z"
       id="path3151"
       inkscape:connector-curvature="0"
       sodipodi:nodetypes="ccccccc" />
    <path
       sodipodi:nodetypes="cccccccccccccccccccc"
       inkscape:connector-curvature="0"
       id="path3898"
       d="m 492.12436,627.10832 c -10.52242,0 -21.04484,-2e-5 -31.56726,-2e-5 -3.0414,-1.14667 -4.76157,-1.90775 -5.53989,-5.36179 0.25685,-5.61811 1.16706,-16.82574 1.16706,-16.82574 0,0 -0.52474,-14.47706 7.55782,-14.31387 5.89024,-0.19967 16.26044,0 16.26044,0 7.23701,0.16473 6.69864,8.96101 4.37981,12.47966 l -28.05526,-0.2219 -0.75761,9.28078 c 0,0 21.8235,0.0631 35.54474,0.0631 6.95453,-3.83103 7.14083,-12.44706 6.69584,-18.72156 0.21414,-4.77497 -5.25319,-11.40902 -10.71086,-11.98283 -3.34354,-0.18191 -9.7394,-0.03 -9.7394,-0.03 l -19.20181,0 c -7.7658,0.51256 -11.99138,9.33841 -12.69866,16.62166 0,0 -1.47344,18.38736 -1.82228,26.99216 -0.19062,5.17117 5.05403,10.08495 11.67568,11.39488 11.64469,-0.005 36.44741,0 36.44741,0 0,0 1.196,-6.88623 1.3305,-9.37457 z"
       style="fill:#ffffff;fill-opacity:1;fill-rule:nonzero;stroke:none" />
  </g>
</svg>
